<?xml version="1.0" encoding="UTF-8"?>
<svg xmlns="http://www.w3.org/2000/svg" xmlns:xlink="http://www.w3.org/1999/xlink" width="278pt" height="97pt" viewBox="0 0 278 97" version="1.1">
<defs>
<clipPath id="clip1">
  <path d="M 271 88 L 277.242188 88 L 277.242188 97 L 271 97 Z M 271 88 "/>
</clipPath>
<clipPath id="clip2">
  <path d="M 12 0.9375 L 36 0.9375 L 36 25 L 12 25 Z M 12 0.9375 "/>
</clipPath>
</defs>
<g id="surface1">
<path style=" stroke:none;fill-rule:nonzero;fill:rgb(100%,100%,100%);fill-opacity:1;" d="M 14.558594 45.097656 C 15.449219 45.097656 16.089844 44.472656 16.089844 43.566406 C 16.089844 42.648438 15.386719 42.023438 14.480469 42.023438 L 11.5 42.023438 L 11.5 45.097656 Z M 11.5 40.226562 L 13.980469 40.226562 C 14.464844 40.085938 14.917969 39.539062 14.933594 38.945312 C 14.949219 38.136719 14.355469 37.542969 13.515625 37.542969 L 11.5 37.542969 Z M 10.28125 46.984375 C 9.75 46.984375 9.519531 46.628906 9.519531 46.238281 L 9.519531 36.402344 C 9.519531 36.011719 9.75 35.636719 10.28125 35.636719 L 13.496094 35.636719 C 15.542969 35.636719 16.917969 36.949219 16.917969 38.851562 C 16.917969 39.492188 16.558594 40.179688 16.121094 40.585938 C 17.261719 41.007812 18.085938 42.273438 18.085938 43.582031 C 18.085938 45.644531 16.667969 46.984375 14.605469 46.984375 L 10.28125 46.984375 "/>
<path style=" stroke:none;fill-rule:nonzero;fill:rgb(100%,100%,100%);fill-opacity:1;" d="M 22.898438 37.542969 L 22.898438 40.742188 L 25.222656 40.742188 C 26.378906 40.742188 26.988281 40.117188 26.988281 39.195312 C 26.988281 38.214844 26.363281 37.542969 25.316406 37.542969 Z M 29.203125 45.957031 C 29.546875 46.457031 29.21875 46.984375 28.625 46.984375 L 27.988281 46.984375 C 27.691406 46.984375 27.378906 46.8125 27.207031 46.566406 L 24.660156 42.597656 L 22.898438 42.597656 L 22.898438 46.238281 C 22.898438 46.628906 22.664062 46.984375 22.132812 46.984375 L 21.679688 46.984375 C 21.148438 46.984375 20.898438 46.628906 20.898438 46.238281 L 20.898438 36.402344 C 20.898438 36.011719 21.148438 35.636719 21.679688 35.636719 L 25.332031 35.636719 C 27.550781 35.636719 29.03125 37.089844 29.03125 39.132812 C 29.03125 40.789062 28.003906 41.960938 26.738281 42.347656 L 29.203125 45.957031 "/>
<path style=" stroke:none;fill-rule:nonzero;fill:rgb(100%,100%,100%);fill-opacity:1;" d="M 32.15625 43.113281 L 32.15625 36.402344 C 32.15625 36.011719 32.390625 35.636719 32.921875 35.636719 L 33.375 35.636719 C 33.90625 35.636719 34.140625 36.011719 34.140625 36.402344 L 34.140625 43.144531 C 34.140625 44.472656 35.011719 45.238281 36.292969 45.238281 C 37.589844 45.238281 38.429688 44.472656 38.429688 43.144531 L 38.429688 36.402344 C 38.429688 36.011719 38.664062 35.636719 39.195312 35.636719 L 39.632812 35.636719 C 40.164062 35.636719 40.398438 36.011719 40.398438 36.402344 L 40.398438 43.113281 C 40.398438 45.582031 38.824219 47.109375 36.292969 47.109375 C 33.734375 47.109375 32.15625 45.597656 32.15625 43.113281 "/>
<path style=" stroke:none;fill-rule:nonzero;fill:rgb(100%,100%,100%);fill-opacity:1;" d="M 47.535156 39.460938 L 49.769531 36.042969 C 49.90625 35.824219 50.15625 35.636719 50.484375 35.636719 L 51.203125 35.636719 C 51.75 35.636719 52.09375 36.183594 51.734375 36.730469 L 48.738281 41.195312 L 51.875 45.910156 C 52.234375 46.457031 51.90625 46.984375 51.328125 46.984375 L 50.671875 46.984375 C 50.296875 46.984375 50.078125 46.796875 49.953125 46.59375 L 47.535156 42.910156 L 45.132812 46.59375 C 44.992188 46.796875 44.773438 46.984375 44.398438 46.984375 L 43.742188 46.984375 C 43.179688 46.984375 42.835938 46.457031 43.210938 45.894531 L 46.347656 41.195312 L 43.367188 36.730469 C 43.007812 36.183594 43.335938 35.636719 43.882812 35.636719 L 44.585938 35.636719 C 44.914062 35.636719 45.164062 35.824219 45.304688 36.042969 L 47.535156 39.460938 "/>
<path style=" stroke:none;fill-rule:nonzero;fill:rgb(100%,100%,100%);fill-opacity:1;" d="M 56.808594 37.542969 L 56.808594 40.164062 L 60.324219 40.164062 C 60.757812 40.164062 61.101562 40.445312 61.101562 40.929688 L 61.101562 41.304688 C 61.101562 41.789062 60.757812 42.070312 60.324219 42.070312 L 56.808594 42.070312 L 56.808594 45.082031 L 61.664062 45.082031 C 62.132812 45.082031 62.445312 45.425781 62.445312 45.832031 L 62.445312 46.238281 C 62.445312 46.65625 62.132812 46.984375 61.664062 46.984375 L 55.609375 46.984375 C 55.078125 46.984375 54.84375 46.644531 54.84375 46.238281 L 54.84375 36.402344 C 54.84375 35.996094 55.078125 35.636719 55.609375 35.636719 L 61.382812 35.636719 C 61.789062 35.636719 62.132812 35.917969 62.132812 36.402344 L 62.132812 36.777344 C 62.132812 37.246094 61.789062 37.542969 61.382812 37.542969 L 56.808594 37.542969 "/>
<path style=" stroke:none;fill-rule:nonzero;fill:rgb(100%,100%,100%);fill-opacity:1;" d="M 65.851562 46.984375 C 65.320312 46.984375 65.101562 46.628906 65.101562 46.238281 L 65.101562 36.402344 C 65.101562 36.011719 65.351562 35.636719 65.851562 35.636719 L 66.300781 35.636719 C 66.800781 35.636719 67.050781 36.011719 67.050781 36.402344 L 67.050781 45.066406 L 71.546875 45.066406 C 71.9375 45.066406 72.296875 45.300781 72.296875 45.816406 L 72.296875 46.238281 C 72.296875 46.75 71.9375 46.984375 71.546875 46.984375 L 65.851562 46.984375 "/>
<path style=" stroke:none;fill-rule:nonzero;fill:rgb(100%,100%,100%);fill-opacity:1;" d="M 75.0625 46.984375 C 74.53125 46.984375 74.3125 46.628906 74.3125 46.238281 L 74.3125 36.402344 C 74.3125 36.011719 74.5625 35.636719 75.0625 35.636719 L 75.515625 35.636719 C 76.015625 35.636719 76.265625 36.011719 76.265625 36.402344 L 76.265625 45.066406 L 80.761719 45.066406 C 81.148438 45.066406 81.507812 45.300781 81.507812 45.816406 L 81.507812 46.238281 C 81.507812 46.75 81.148438 46.984375 80.761719 46.984375 L 75.0625 46.984375 "/>
<path style=" stroke:none;fill-rule:nonzero;fill:rgb(100%,100%,100%);fill-opacity:1;" d="M 85.507812 37.542969 L 85.507812 40.164062 L 89.019531 40.164062 C 89.457031 40.164062 89.800781 40.445312 89.800781 40.929688 L 89.800781 41.304688 C 89.800781 41.789062 89.457031 42.070312 89.019531 42.070312 L 85.507812 42.070312 L 85.507812 45.082031 L 90.363281 45.082031 C 90.832031 45.082031 91.144531 45.425781 91.144531 45.832031 L 91.144531 46.238281 C 91.144531 46.65625 90.832031 46.984375 90.363281 46.984375 L 84.304688 46.984375 C 83.773438 46.984375 83.539062 46.644531 83.539062 46.238281 L 83.539062 36.402344 C 83.539062 35.996094 83.773438 35.636719 84.304688 35.636719 L 90.082031 35.636719 C 90.488281 35.636719 90.832031 35.917969 90.832031 36.402344 L 90.832031 36.777344 C 90.832031 37.246094 90.488281 37.542969 90.082031 37.542969 L 85.507812 37.542969 "/>
<path style=" stroke:none;fill-rule:nonzero;fill:rgb(100%,100%,100%);fill-opacity:1;" d="M 101.601562 43.597656 C 101.601562 45.378906 99.980469 47.109375 97.355469 47.109375 C 94.84375 47.109375 92.984375 45.785156 92.941406 43.175781 C 92.941406 42.753906 93.21875 42.410156 93.671875 42.410156 L 94.1875 42.410156 C 94.625 42.410156 94.953125 42.675781 94.984375 43.144531 C 95.078125 44.550781 95.96875 45.207031 97.355469 45.207031 C 98.699219 45.207031 99.542969 44.503906 99.542969 43.644531 C 99.542969 42.972656 99.152344 42.535156 98.152344 42.300781 C 97.558594 42.164062 96.917969 41.992188 96.265625 41.804688 C 94.953125 41.429688 93.421875 40.664062 93.421875 38.804688 C 93.421875 36.699219 95.125 35.511719 97.292969 35.511719 C 99.355469 35.511719 101.058594 36.777344 101.257812 38.679688 C 101.304688 39.132812 101.039062 39.476562 100.511719 39.476562 L 100.058594 39.476562 C 99.621094 39.476562 99.308594 39.179688 99.261719 38.773438 C 99.167969 37.839844 98.339844 37.355469 97.261719 37.355469 C 96.1875 37.355469 95.40625 37.933594 95.421875 38.757812 C 95.4375 39.445312 96.140625 39.773438 96.90625 39.976562 C 97.511719 40.148438 98.027344 40.273438 98.667969 40.429688 C 100.695312 40.898438 101.601562 41.960938 101.601562 43.597656 "/>
<path style=" stroke:none;fill-rule:nonzero;fill:rgb(100%,100%,100%);fill-opacity:1;" d="M 117.328125 39.179688 L 114.90625 44.332031 C 114.796875 44.566406 114.53125 44.800781 114.222656 44.800781 L 113.503906 44.800781 C 113.160156 44.800781 112.925781 44.582031 112.816406 44.347656 L 110.363281 39.179688 L 110.429688 46.238281 C 110.429688 46.628906 110.210938 46.984375 109.679688 46.984375 L 109.257812 46.984375 C 108.726562 46.984375 108.523438 46.628906 108.523438 46.238281 L 108.523438 36.402344 C 108.523438 36.011719 108.757812 35.636719 109.257812 35.636719 L 110.070312 35.636719 C 110.382812 35.636719 110.644531 35.808594 110.785156 36.089844 L 113.847656 42.363281 L 116.9375 36.074219 C 117.0625 35.824219 117.296875 35.636719 117.671875 35.636719 L 118.449219 35.636719 C 118.964844 35.636719 119.199219 36.011719 119.199219 36.402344 L 119.199219 46.238281 C 119.199219 46.628906 118.964844 46.984375 118.4375 46.984375 L 118.015625 46.984375 C 117.484375 46.984375 117.28125 46.628906 117.28125 46.238281 L 117.328125 39.179688 "/>
<path style=" stroke:none;fill-rule:nonzero;fill:rgb(100%,100%,100%);fill-opacity:1;" d="M 124.058594 41.320312 C 124.058594 43.566406 125.074219 45.222656 126.789062 45.222656 C 128.507812 45.222656 129.523438 43.566406 129.523438 41.320312 C 129.523438 39.101562 128.476562 37.355469 126.789062 37.355469 C 125.105469 37.355469 124.058594 39.101562 124.058594 41.320312 Z M 122.09375 41.320312 C 122.09375 37.949219 123.980469 35.511719 126.789062 35.511719 C 129.601562 35.511719 131.488281 37.949219 131.488281 41.320312 C 131.488281 44.691406 129.632812 47.109375 126.789062 47.109375 C 123.949219 47.109375 122.09375 44.691406 122.09375 41.320312 "/>
<path style=" stroke:none;fill-rule:nonzero;fill:rgb(100%,100%,100%);fill-opacity:1;" d="M 139.421875 45.097656 C 140.3125 45.097656 140.953125 44.472656 140.953125 43.566406 C 140.953125 42.648438 140.25 42.023438 139.34375 42.023438 L 136.363281 42.023438 L 136.363281 45.097656 Z M 136.363281 40.226562 L 138.84375 40.226562 C 139.328125 40.085938 139.78125 39.539062 139.796875 38.945312 C 139.8125 38.136719 139.21875 37.542969 138.375 37.542969 L 136.363281 37.542969 Z M 135.144531 46.984375 C 134.613281 46.984375 134.378906 46.628906 134.378906 46.238281 L 134.378906 36.402344 C 134.378906 36.011719 134.613281 35.636719 135.144531 35.636719 L 138.359375 35.636719 C 140.40625 35.636719 141.777344 36.949219 141.777344 38.851562 C 141.777344 39.492188 141.417969 40.179688 140.984375 40.585938 C 142.121094 41.007812 142.949219 42.273438 142.949219 43.582031 C 142.949219 45.644531 141.527344 46.984375 139.46875 46.984375 L 135.144531 46.984375 "/>
<path style=" stroke:none;fill-rule:nonzero;fill:rgb(100%,100%,100%);fill-opacity:1;" d="M 146.230469 36.386719 C 146.230469 35.964844 146.480469 35.636719 146.980469 35.636719 L 147.414062 35.636719 C 147.914062 35.636719 148.179688 35.964844 148.179688 36.386719 L 148.179688 46.253906 C 148.179688 46.65625 147.929688 46.984375 147.414062 46.984375 L 146.996094 46.984375 C 146.496094 46.984375 146.230469 46.65625 146.230469 46.253906 L 146.230469 36.386719 "/>
<path style=" stroke:none;fill-rule:nonzero;fill:rgb(100%,100%,100%);fill-opacity:1;" d="M 152.820312 46.984375 C 152.289062 46.984375 152.070312 46.628906 152.070312 46.238281 L 152.070312 36.402344 C 152.070312 36.011719 152.320312 35.636719 152.820312 35.636719 L 153.269531 35.636719 C 153.769531 35.636719 154.019531 36.011719 154.019531 36.402344 L 154.019531 45.066406 L 158.515625 45.066406 C 158.90625 45.066406 159.265625 45.300781 159.265625 45.816406 L 159.265625 46.238281 C 159.265625 46.75 158.90625 46.984375 158.515625 46.984375 L 152.820312 46.984375 "/>
<path style=" stroke:none;fill-rule:nonzero;fill:rgb(100%,100%,100%);fill-opacity:1;" d="M 161.765625 36.386719 C 161.765625 35.964844 162.015625 35.636719 162.515625 35.636719 L 162.953125 35.636719 C 163.449219 35.636719 163.714844 35.964844 163.714844 36.386719 L 163.714844 46.253906 C 163.714844 46.65625 163.464844 46.984375 162.953125 46.984375 L 162.53125 46.984375 C 162.03125 46.984375 161.765625 46.65625 161.765625 46.253906 L 161.765625 36.386719 "/>
<path style=" stroke:none;fill-rule:nonzero;fill:rgb(100%,100%,100%);fill-opacity:1;" d="M 167.042969 37.542969 C 166.605469 37.542969 166.292969 37.246094 166.292969 36.777344 L 166.292969 36.402344 C 166.292969 35.933594 166.605469 35.636719 167.042969 35.636719 L 174.363281 35.636719 C 174.800781 35.636719 175.113281 35.933594 175.113281 36.402344 L 175.113281 36.777344 C 175.113281 37.246094 174.800781 37.542969 174.363281 37.542969 L 171.679688 37.542969 L 171.679688 46.238281 C 171.679688 46.644531 171.398438 46.984375 170.914062 46.984375 L 170.476562 46.984375 C 169.992188 46.984375 169.726562 46.644531 169.726562 46.238281 L 169.726562 37.542969 L 167.042969 37.542969 "/>
<path style=" stroke:none;fill-rule:nonzero;fill:rgb(100%,100%,100%);fill-opacity:1;" d="M 180.984375 33.109375 C 181.109375 32.90625 181.34375 32.71875 181.640625 32.71875 L 182.625 32.71875 C 182.953125 32.71875 183.09375 33.0625 182.890625 33.296875 L 181.8125 34.605469 C 181.609375 34.855469 181.390625 34.996094 181.09375 34.996094 L 180.421875 34.996094 C 180.171875 34.996094 179.984375 34.746094 180.140625 34.480469 Z M 179.1875 37.542969 L 179.1875 40.164062 L 182.703125 40.164062 C 183.140625 40.164062 183.480469 40.445312 183.480469 40.929688 L 183.480469 41.304688 C 183.480469 41.789062 183.140625 42.070312 182.703125 42.070312 L 179.1875 42.070312 L 179.1875 45.082031 L 184.042969 45.082031 C 184.511719 45.082031 184.824219 45.425781 184.824219 45.832031 L 184.824219 46.238281 C 184.824219 46.65625 184.511719 46.984375 184.042969 46.984375 L 177.988281 46.984375 C 177.457031 46.984375 177.222656 46.644531 177.222656 46.238281 L 177.222656 36.402344 C 177.222656 35.996094 177.457031 35.636719 177.988281 35.636719 L 183.761719 35.636719 C 184.167969 35.636719 184.511719 35.917969 184.511719 36.402344 L 184.511719 36.777344 C 184.511719 37.246094 184.167969 37.542969 183.761719 37.542969 L 179.1875 37.542969 "/>
<path style=" stroke:none;fill-rule:nonzero;fill:rgb(100%,100%,100%);fill-opacity:1;" d="M 14.5625 62.273438 C 15.453125 62.273438 16.089844 61.648438 16.089844 60.742188 C 16.089844 59.820312 15.390625 59.195312 14.484375 59.195312 L 11.503906 59.195312 L 11.503906 62.273438 Z M 11.503906 57.402344 L 13.984375 57.402344 C 14.46875 57.261719 14.921875 56.714844 14.9375 56.121094 C 14.953125 55.308594 14.359375 54.714844 13.515625 54.714844 L 11.503906 54.714844 Z M 10.285156 64.160156 C 9.753906 64.160156 9.519531 63.800781 9.519531 63.410156 L 9.519531 53.578125 C 9.519531 53.1875 9.753906 52.8125 10.285156 52.8125 L 13.5 52.8125 C 15.542969 52.8125 16.917969 54.121094 16.917969 56.027344 C 16.917969 56.667969 16.558594 57.355469 16.121094 57.761719 C 17.261719 58.179688 18.089844 59.445312 18.089844 60.757812 C 18.089844 62.816406 16.667969 64.160156 14.609375 64.160156 L 10.285156 64.160156 "/>
<path style=" stroke:none;fill-rule:nonzero;fill:rgb(100%,100%,100%);fill-opacity:1;" d="M 22.898438 54.714844 L 22.898438 57.914062 L 25.226562 57.914062 C 26.382812 57.914062 26.988281 57.292969 26.988281 56.371094 C 26.988281 55.386719 26.363281 54.714844 25.320312 54.714844 Z M 29.207031 63.128906 C 29.550781 63.628906 29.222656 64.160156 28.628906 64.160156 L 27.988281 64.160156 C 27.691406 64.160156 27.378906 63.988281 27.207031 63.738281 L 24.664062 59.773438 L 22.898438 59.773438 L 22.898438 63.410156 C 22.898438 63.800781 22.664062 64.160156 22.136719 64.160156 L 21.683594 64.160156 C 21.152344 64.160156 20.902344 63.800781 20.902344 63.410156 L 20.902344 53.578125 C 20.902344 53.1875 21.152344 52.8125 21.683594 52.8125 L 25.335938 52.8125 C 27.550781 52.8125 29.035156 54.265625 29.035156 56.308594 C 29.035156 57.964844 28.003906 59.132812 26.738281 59.523438 L 29.207031 63.128906 "/>
<path style=" stroke:none;fill-rule:nonzero;fill:rgb(100%,100%,100%);fill-opacity:1;" d="M 32.160156 60.289062 L 32.160156 53.578125 C 32.160156 53.1875 32.394531 52.8125 32.921875 52.8125 L 33.375 52.8125 C 33.90625 52.8125 34.140625 53.1875 34.140625 53.578125 L 34.140625 60.320312 C 34.140625 61.648438 35.015625 62.410156 36.296875 62.410156 C 37.589844 62.410156 38.433594 61.648438 38.433594 60.320312 L 38.433594 53.578125 C 38.433594 53.1875 38.667969 52.8125 39.199219 52.8125 L 39.636719 52.8125 C 40.167969 52.8125 40.402344 53.1875 40.402344 53.578125 L 40.402344 60.289062 C 40.402344 62.753906 38.824219 64.285156 36.296875 64.285156 C 33.734375 64.285156 32.160156 62.769531 32.160156 60.289062 "/>
<path style=" stroke:none;fill-rule:nonzero;fill:rgb(100%,100%,100%);fill-opacity:1;" d="M 51.9375 60.773438 C 51.9375 62.550781 50.316406 64.285156 47.691406 64.285156 C 45.179688 64.285156 43.324219 62.957031 43.277344 60.351562 C 43.277344 59.929688 43.554688 59.585938 44.007812 59.585938 L 44.523438 59.585938 C 44.960938 59.585938 45.289062 59.851562 45.320312 60.320312 C 45.414062 61.722656 46.304688 62.382812 47.691406 62.382812 C 49.035156 62.382812 49.878906 61.675781 49.878906 60.820312 C 49.878906 60.148438 49.488281 59.710938 48.488281 59.476562 C 47.894531 59.335938 47.257812 59.164062 46.601562 58.976562 C 45.289062 58.601562 43.757812 57.839844 43.757812 55.980469 C 43.757812 53.871094 45.460938 52.6875 47.628906 52.6875 C 49.691406 52.6875 51.394531 53.953125 51.59375 55.855469 C 51.640625 56.308594 51.378906 56.652344 50.847656 56.652344 L 50.394531 56.652344 C 49.957031 56.652344 49.644531 56.355469 49.597656 55.949219 C 49.503906 55.011719 48.675781 54.527344 47.597656 54.527344 C 46.523438 54.527344 45.742188 55.105469 45.757812 55.933594 C 45.773438 56.621094 46.476562 56.949219 47.238281 57.152344 C 47.847656 57.324219 48.363281 57.449219 49.003906 57.601562 C 51.03125 58.074219 51.9375 59.132812 51.9375 60.773438 "/>
<path style=" stroke:none;fill-rule:nonzero;fill:rgb(100%,100%,100%);fill-opacity:1;" d="M 62.773438 60.773438 C 62.773438 62.550781 61.152344 64.285156 58.527344 64.285156 C 56.015625 64.285156 54.15625 62.957031 54.109375 60.351562 C 54.109375 59.929688 54.390625 59.585938 54.84375 59.585938 L 55.359375 59.585938 C 55.796875 59.585938 56.125 59.851562 56.15625 60.320312 C 56.25 61.722656 57.140625 62.382812 58.527344 62.382812 C 59.871094 62.382812 60.714844 61.675781 60.714844 60.820312 C 60.714844 60.148438 60.324219 59.710938 59.324219 59.476562 C 58.730469 59.335938 58.09375 59.164062 57.4375 58.976562 C 56.125 58.601562 54.59375 57.839844 54.59375 55.980469 C 54.59375 53.871094 56.296875 52.6875 58.464844 52.6875 C 60.527344 52.6875 62.226562 53.953125 62.429688 55.855469 C 62.476562 56.308594 62.214844 56.652344 61.683594 56.652344 L 61.230469 56.652344 C 60.792969 56.652344 60.480469 56.355469 60.433594 55.949219 C 60.339844 55.011719 59.511719 54.527344 58.433594 54.527344 C 57.359375 54.527344 56.578125 55.105469 56.59375 55.933594 C 56.609375 56.621094 57.3125 56.949219 58.078125 57.152344 C 58.683594 57.324219 59.199219 57.449219 59.839844 57.601562 C 61.867188 58.074219 62.773438 59.132812 62.773438 60.773438 "/>
<path style=" stroke:none;fill-rule:nonzero;fill:rgb(100%,100%,100%);fill-opacity:1;" d="M 67.632812 54.714844 L 67.632812 57.339844 L 71.144531 57.339844 C 71.582031 57.339844 71.925781 57.617188 71.925781 58.101562 L 71.925781 58.476562 C 71.925781 58.960938 71.582031 59.242188 71.144531 59.242188 L 67.632812 59.242188 L 67.632812 62.257812 L 72.484375 62.257812 C 72.953125 62.257812 73.265625 62.597656 73.265625 63.003906 L 73.265625 63.410156 C 73.265625 63.832031 72.953125 64.160156 72.484375 64.160156 L 66.429688 64.160156 C 65.898438 64.160156 65.664062 63.816406 65.664062 63.410156 L 65.664062 53.578125 C 65.664062 53.171875 65.898438 52.8125 66.429688 52.8125 L 72.207031 52.8125 C 72.609375 52.8125 72.953125 53.09375 72.953125 53.578125 L 72.953125 53.953125 C 72.953125 54.417969 72.609375 54.714844 72.207031 54.714844 L 67.632812 54.714844 "/>
<path style=" stroke:none;fill-rule:nonzero;fill:rgb(100%,100%,100%);fill-opacity:1;" d="M 76.671875 64.160156 C 76.140625 64.160156 75.921875 63.800781 75.921875 63.410156 L 75.921875 53.578125 C 75.921875 53.1875 76.171875 52.8125 76.671875 52.8125 L 77.125 52.8125 C 77.625 52.8125 77.875 53.1875 77.875 53.578125 L 77.875 62.238281 L 82.371094 62.238281 C 82.761719 62.238281 83.117188 62.472656 83.117188 62.988281 L 83.117188 63.410156 C 83.117188 63.925781 82.761719 64.160156 82.371094 64.160156 L 76.671875 64.160156 "/>
<path style=" stroke:none;fill-rule:nonzero;fill:rgb(100%,100%,100%);fill-opacity:1;" d="M 97.980469 56.355469 L 95.5625 61.507812 C 95.453125 61.738281 95.1875 61.972656 94.875 61.972656 L 94.15625 61.972656 C 93.8125 61.972656 93.578125 61.757812 93.46875 61.523438 L 91.019531 56.355469 L 91.082031 63.410156 C 91.082031 63.800781 90.863281 64.160156 90.332031 64.160156 L 89.910156 64.160156 C 89.378906 64.160156 89.175781 63.800781 89.175781 63.410156 L 89.175781 53.578125 C 89.175781 53.1875 89.410156 52.8125 89.910156 52.8125 L 90.722656 52.8125 C 91.035156 52.8125 91.300781 52.984375 91.441406 53.265625 L 94.5 59.539062 L 97.589844 53.25 C 97.714844 53 97.949219 52.8125 98.324219 52.8125 L 99.105469 52.8125 C 99.621094 52.8125 99.855469 53.1875 99.855469 53.578125 L 99.855469 63.410156 C 99.855469 63.800781 99.621094 64.160156 99.089844 64.160156 L 98.667969 64.160156 C 98.136719 64.160156 97.933594 63.800781 97.933594 63.410156 L 97.980469 56.355469 "/>
<path style=" stroke:none;fill-rule:nonzero;fill:rgb(100%,100%,100%);fill-opacity:1;" d="M 104.710938 58.492188 C 104.710938 60.742188 105.726562 62.398438 107.441406 62.398438 C 109.160156 62.398438 110.175781 60.742188 110.175781 58.492188 C 110.175781 56.277344 109.128906 54.527344 107.441406 54.527344 C 105.757812 54.527344 104.710938 56.277344 104.710938 58.492188 Z M 102.746094 58.492188 C 102.746094 55.121094 104.632812 52.6875 107.441406 52.6875 C 110.253906 52.6875 112.140625 55.121094 112.140625 58.492188 C 112.140625 61.863281 110.285156 64.285156 107.441406 64.285156 C 104.601562 64.285156 102.746094 61.863281 102.746094 58.492188 "/>
<path style=" stroke:none;fill-rule:nonzero;fill:rgb(100%,100%,100%);fill-opacity:1;" d="M 120.074219 62.273438 C 120.964844 62.273438 121.605469 61.648438 121.605469 60.742188 C 121.605469 59.820312 120.902344 59.195312 119.996094 59.195312 L 117.015625 59.195312 L 117.015625 62.273438 Z M 117.015625 57.402344 L 119.496094 57.402344 C 119.980469 57.261719 120.433594 56.714844 120.449219 56.121094 C 120.464844 55.308594 119.871094 54.714844 119.027344 54.714844 L 117.015625 54.714844 Z M 115.796875 64.160156 C 115.265625 64.160156 115.03125 63.800781 115.03125 63.410156 L 115.03125 53.578125 C 115.03125 53.1875 115.265625 52.8125 115.796875 52.8125 L 119.011719 52.8125 C 121.058594 52.8125 122.429688 54.121094 122.429688 56.027344 C 122.429688 56.667969 122.070312 57.355469 121.636719 57.761719 C 122.773438 58.179688 123.601562 59.445312 123.601562 60.757812 C 123.601562 62.816406 122.183594 64.160156 120.121094 64.160156 L 115.796875 64.160156 "/>
<path style=" stroke:none;fill-rule:nonzero;fill:rgb(100%,100%,100%);fill-opacity:1;" d="M 126.882812 53.558594 C 126.882812 53.140625 127.132812 52.8125 127.632812 52.8125 L 128.070312 52.8125 C 128.570312 52.8125 128.835938 53.140625 128.835938 53.558594 L 128.835938 63.425781 C 128.835938 63.832031 128.585938 64.160156 128.070312 64.160156 L 127.648438 64.160156 C 127.148438 64.160156 126.882812 63.832031 126.882812 63.425781 L 126.882812 53.558594 "/>
<path style=" stroke:none;fill-rule:nonzero;fill:rgb(100%,100%,100%);fill-opacity:1;" d="M 133.472656 64.160156 C 132.941406 64.160156 132.722656 63.800781 132.722656 63.410156 L 132.722656 53.578125 C 132.722656 53.1875 132.972656 52.8125 133.472656 52.8125 L 133.925781 52.8125 C 134.421875 52.8125 134.671875 53.1875 134.671875 53.578125 L 134.671875 62.238281 L 139.167969 62.238281 C 139.558594 62.238281 139.917969 62.472656 139.917969 62.988281 L 139.917969 63.410156 C 139.917969 63.925781 139.558594 64.160156 139.167969 64.160156 L 133.472656 64.160156 "/>
<path style=" stroke:none;fill-rule:nonzero;fill:rgb(100%,100%,100%);fill-opacity:1;" d="M 142.417969 53.558594 C 142.417969 53.140625 142.667969 52.8125 143.167969 52.8125 L 143.605469 52.8125 C 144.105469 52.8125 144.371094 53.140625 144.371094 53.558594 L 144.371094 63.425781 C 144.371094 63.832031 144.121094 64.160156 143.605469 64.160156 L 143.183594 64.160156 C 142.683594 64.160156 142.417969 63.832031 142.417969 63.425781 L 142.417969 53.558594 "/>
<path style=" stroke:none;fill-rule:nonzero;fill:rgb(100%,100%,100%);fill-opacity:1;" d="M 147.695312 54.714844 C 147.257812 54.714844 146.945312 54.417969 146.945312 53.953125 L 146.945312 53.578125 C 146.945312 53.109375 147.257812 52.8125 147.695312 52.8125 L 155.015625 52.8125 C 155.453125 52.8125 155.765625 53.109375 155.765625 53.578125 L 155.765625 53.953125 C 155.765625 54.417969 155.453125 54.714844 155.015625 54.714844 L 152.332031 54.714844 L 152.332031 63.410156 C 152.332031 63.816406 152.050781 64.160156 151.566406 64.160156 L 151.128906 64.160156 C 150.644531 64.160156 150.378906 63.816406 150.378906 63.410156 L 150.378906 54.714844 L 147.695312 54.714844 "/>
<path style=" stroke:none;fill-rule:nonzero;fill:rgb(100%,100%,100%);fill-opacity:1;" d="M 159.839844 54.714844 L 159.839844 57.339844 L 163.355469 57.339844 C 163.789062 57.339844 164.132812 57.617188 164.132812 58.101562 L 164.132812 58.476562 C 164.132812 58.960938 163.789062 59.242188 163.355469 59.242188 L 159.839844 59.242188 L 159.839844 62.257812 L 164.695312 62.257812 C 165.164062 62.257812 165.476562 62.597656 165.476562 63.003906 L 165.476562 63.410156 C 165.476562 63.832031 165.164062 64.160156 164.695312 64.160156 L 158.640625 64.160156 C 158.109375 64.160156 157.875 63.816406 157.875 63.410156 L 157.875 53.578125 C 157.875 53.171875 158.109375 52.8125 158.640625 52.8125 L 164.414062 52.8125 C 164.820312 52.8125 165.164062 53.09375 165.164062 53.578125 L 165.164062 53.953125 C 165.164062 54.417969 164.820312 54.714844 164.414062 54.714844 L 159.839844 54.714844 "/>
<path style=" stroke:none;fill-rule:nonzero;fill:rgb(100%,100%,100%);fill-opacity:1;" d="M 168.585938 53.558594 C 168.585938 53.140625 168.835938 52.8125 169.335938 52.8125 L 169.773438 52.8125 C 170.269531 52.8125 170.535156 53.140625 170.535156 53.558594 L 170.535156 63.425781 C 170.535156 63.832031 170.285156 64.160156 169.773438 64.160156 L 169.351562 64.160156 C 168.851562 64.160156 168.585938 63.832031 168.585938 63.425781 L 168.585938 53.558594 "/>
<path style=" stroke:none;fill-rule:nonzero;fill:rgb(100%,100%,100%);fill-opacity:1;" d="M 173.863281 54.714844 C 173.425781 54.714844 173.113281 54.417969 173.113281 53.953125 L 173.113281 53.578125 C 173.113281 53.109375 173.425781 52.8125 173.863281 52.8125 L 181.183594 52.8125 C 181.621094 52.8125 181.933594 53.109375 181.933594 53.578125 L 181.933594 53.953125 C 181.933594 54.417969 181.621094 54.714844 181.183594 54.714844 L 178.5 54.714844 L 178.5 63.410156 C 178.5 63.816406 178.21875 64.160156 177.734375 64.160156 L 177.296875 64.160156 C 176.8125 64.160156 176.546875 63.816406 176.546875 63.410156 L 176.546875 54.714844 L 173.863281 54.714844 "/>
<path style=" stroke:none;fill-rule:nonzero;fill:rgb(100%,100%,100%);fill-opacity:1;" d="M 15.214844 81.484375 C 15.214844 82.820312 13.996094 84.117188 12.03125 84.117188 C 10.144531 84.117188 8.753906 83.121094 8.71875 81.167969 C 8.71875 80.851562 8.925781 80.59375 9.265625 80.59375 L 9.652344 80.59375 C 9.980469 80.59375 10.226562 80.792969 10.25 81.144531 C 10.320312 82.199219 10.988281 82.691406 12.03125 82.691406 C 13.035156 82.691406 13.667969 82.160156 13.667969 81.519531 C 13.667969 81.015625 13.375 80.6875 12.625 80.511719 C 12.179688 80.40625 11.703125 80.277344 11.210938 80.136719 C 10.226562 79.855469 9.082031 79.28125 9.082031 77.890625 C 9.082031 76.308594 10.355469 75.421875 11.980469 75.421875 C 13.527344 75.421875 14.804688 76.367188 14.957031 77.796875 C 14.988281 78.136719 14.792969 78.394531 14.394531 78.394531 L 14.054688 78.394531 C 13.726562 78.394531 13.492188 78.171875 13.457031 77.867188 C 13.386719 77.164062 12.765625 76.800781 11.960938 76.800781 C 11.152344 76.800781 10.566406 77.234375 10.578125 77.855469 C 10.589844 78.371094 11.117188 78.617188 11.691406 78.769531 C 12.148438 78.898438 12.53125 78.992188 13.011719 79.109375 C 14.535156 79.460938 15.214844 80.253906 15.214844 81.484375 "/>
<path style=" stroke:none;fill-rule:nonzero;fill:rgb(100%,100%,100%);fill-opacity:1;" d="M 18.855469 76.941406 L 18.855469 78.910156 L 21.488281 78.910156 C 21.816406 78.910156 22.074219 79.121094 22.074219 79.480469 L 22.074219 79.765625 C 22.074219 80.125 21.816406 80.335938 21.488281 80.335938 L 18.855469 80.335938 L 18.855469 82.59375 L 22.496094 82.59375 C 22.847656 82.59375 23.082031 82.851562 23.082031 83.15625 L 23.082031 83.460938 C 23.082031 83.777344 22.847656 84.023438 22.496094 84.023438 L 17.957031 84.023438 C 17.558594 84.023438 17.382812 83.765625 17.382812 83.460938 L 17.382812 76.089844 C 17.382812 75.785156 17.558594 75.515625 17.957031 75.515625 L 22.285156 75.515625 C 22.589844 75.515625 22.847656 75.726562 22.847656 76.089844 L 22.847656 76.367188 C 22.847656 76.71875 22.589844 76.941406 22.285156 76.941406 L 18.855469 76.941406 "/>
<path style=" stroke:none;fill-rule:nonzero;fill:rgb(100%,100%,100%);fill-opacity:1;" d="M 26.574219 76.941406 L 26.574219 79.34375 L 28.316406 79.34375 C 29.183594 79.34375 29.640625 78.875 29.640625 78.183594 C 29.640625 77.445312 29.171875 76.941406 28.386719 76.941406 Z M 31.300781 83.25 C 31.558594 83.625 31.3125 84.023438 30.867188 84.023438 L 30.386719 84.023438 C 30.164062 84.023438 29.929688 83.894531 29.800781 83.707031 L 27.894531 80.734375 L 26.574219 80.734375 L 26.574219 83.460938 C 26.574219 83.753906 26.398438 84.023438 26 84.023438 L 25.660156 84.023438 C 25.261719 84.023438 25.074219 83.753906 25.074219 83.460938 L 25.074219 76.089844 C 25.074219 75.796875 25.261719 75.515625 25.660156 75.515625 L 28.398438 75.515625 C 30.058594 75.515625 31.171875 76.601562 31.171875 78.136719 C 31.171875 79.378906 30.398438 80.253906 29.453125 80.546875 L 31.300781 83.25 "/>
<path style=" stroke:none;fill-rule:nonzero;fill:rgb(100%,100%,100%);fill-opacity:1;" d="M 36.78125 83.625 C 36.699219 83.859375 36.5 84.023438 36.230469 84.023438 L 35.730469 84.023438 C 35.484375 84.023438 35.261719 83.859375 35.179688 83.625 L 32.582031 76.21875 C 32.441406 75.820312 32.640625 75.515625 33.035156 75.515625 L 33.492188 75.515625 C 33.785156 75.515625 33.972656 75.691406 34.054688 75.9375 L 35.984375 81.8125 L 37.882812 75.9375 C 37.953125 75.703125 38.164062 75.515625 38.445312 75.515625 L 38.890625 75.515625 C 39.285156 75.515625 39.484375 75.84375 39.355469 76.21875 L 36.78125 83.625 "/>
<path style=" stroke:none;fill-rule:nonzero;fill:rgb(100%,100%,100%);fill-opacity:1;" d="M 41.691406 76.078125 C 41.691406 75.761719 41.878906 75.515625 42.25 75.515625 L 42.578125 75.515625 C 42.953125 75.515625 43.152344 75.761719 43.152344 76.078125 L 43.152344 83.472656 C 43.152344 83.777344 42.964844 84.023438 42.578125 84.023438 L 42.261719 84.023438 C 41.890625 84.023438 41.691406 83.777344 41.691406 83.472656 L 41.691406 76.078125 "/>
<path style=" stroke:none;fill-rule:nonzero;fill:rgb(100%,100%,100%);fill-opacity:1;" d="M 51.734375 81.050781 L 52.15625 81.050781 C 52.53125 81.050781 52.785156 81.320312 52.597656 81.777344 C 51.933594 83.355469 50.796875 84.117188 49.230469 84.117188 C 47.0625 84.117188 45.660156 82.242188 45.660156 79.777344 C 45.660156 77.199219 47.097656 75.421875 49.324219 75.421875 C 50.867188 75.421875 52.121094 76.472656 52.496094 77.914062 C 52.566406 78.195312 52.4375 78.488281 52.144531 78.570312 L 51.804688 78.664062 C 51.488281 78.746094 51.160156 78.628906 51.078125 78.300781 C 50.867188 77.433594 50.246094 76.839844 49.324219 76.828125 C 47.976562 76.816406 47.132812 77.984375 47.132812 79.765625 C 47.132812 81.449219 47.941406 82.675781 49.242188 82.675781 C 50.175781 82.675781 50.808594 82.242188 51.125 81.449219 C 51.230469 81.179688 51.464844 81.050781 51.734375 81.050781 "/>
<path style=" stroke:none;fill-rule:nonzero;fill:rgb(100%,100%,100%);fill-opacity:1;" d="M 56.257812 76.941406 L 56.257812 78.910156 L 58.890625 78.910156 C 59.21875 78.910156 59.472656 79.121094 59.472656 79.480469 L 59.472656 79.765625 C 59.472656 80.125 59.21875 80.335938 58.890625 80.335938 L 56.257812 80.335938 L 56.257812 82.59375 L 59.894531 82.59375 C 60.246094 82.59375 60.480469 82.851562 60.480469 83.15625 L 60.480469 83.460938 C 60.480469 83.777344 60.246094 84.023438 59.894531 84.023438 L 55.355469 84.023438 C 54.957031 84.023438 54.78125 83.765625 54.78125 83.460938 L 54.78125 76.089844 C 54.78125 75.785156 54.957031 75.515625 55.355469 75.515625 L 59.683594 75.515625 C 59.988281 75.515625 60.246094 75.726562 60.246094 76.089844 L 60.246094 76.367188 C 60.246094 76.71875 59.988281 76.941406 59.683594 76.941406 L 56.257812 76.941406 "/>
<path style=" stroke:none;fill-rule:nonzero;fill:rgb(100%,100%,100%);fill-opacity:1;" d="M 66.960938 76.941406 L 66.960938 79.507812 L 68.867188 79.507812 C 69.722656 79.507812 70.234375 79.050781 70.234375 78.253906 C 70.234375 77.445312 69.722656 76.941406 68.867188 76.941406 Z M 68.878906 75.515625 C 70.644531 75.515625 71.722656 76.601562 71.722656 78.21875 C 71.722656 79.835938 70.75 80.898438 68.867188 80.898438 L 66.960938 80.898438 L 66.960938 83.449219 C 66.960938 83.742188 66.773438 84.023438 66.398438 84.023438 L 66.046875 84.023438 C 65.683594 84.023438 65.472656 83.742188 65.472656 83.449219 L 65.472656 76.101562 C 65.472656 75.773438 65.707031 75.515625 66.058594 75.515625 L 68.878906 75.515625 "/>
<path style=" stroke:none;fill-rule:nonzero;fill:rgb(100%,100%,100%);fill-opacity:1;" d="M 73.597656 81.121094 L 73.597656 76.089844 C 73.597656 75.796875 73.773438 75.515625 74.171875 75.515625 L 74.511719 75.515625 C 74.910156 75.515625 75.085938 75.796875 75.085938 76.089844 L 75.085938 81.144531 C 75.085938 82.140625 75.742188 82.714844 76.703125 82.714844 C 77.671875 82.714844 78.304688 82.140625 78.304688 81.144531 L 78.304688 76.089844 C 78.304688 75.796875 78.480469 75.515625 78.878906 75.515625 L 79.207031 75.515625 C 79.601562 75.515625 79.777344 75.796875 79.777344 76.089844 L 79.777344 81.121094 C 79.777344 82.96875 78.597656 84.117188 76.703125 84.117188 C 74.78125 84.117188 73.597656 82.980469 73.597656 81.121094 "/>
<path style=" stroke:none;fill-rule:nonzero;fill:rgb(100%,100%,100%);fill-opacity:1;" d="M 86.136719 82.605469 C 86.804688 82.605469 87.285156 82.140625 87.285156 81.460938 C 87.285156 80.769531 86.757812 80.300781 86.078125 80.300781 L 83.84375 80.300781 L 83.84375 82.605469 Z M 83.84375 78.957031 L 85.707031 78.957031 C 86.066406 78.851562 86.40625 78.441406 86.417969 77.996094 C 86.429688 77.386719 85.984375 76.941406 85.355469 76.941406 L 83.84375 76.941406 Z M 82.929688 84.023438 C 82.53125 84.023438 82.359375 83.753906 82.359375 83.460938 L 82.359375 76.089844 C 82.359375 75.796875 82.53125 75.515625 82.929688 75.515625 L 85.34375 75.515625 C 86.875 75.515625 87.90625 76.496094 87.90625 77.925781 C 87.90625 78.40625 87.636719 78.921875 87.308594 79.222656 C 88.164062 79.539062 88.78125 80.488281 88.78125 81.472656 C 88.78125 83.015625 87.71875 84.023438 86.171875 84.023438 L 82.929688 84.023438 "/>
<path style=" stroke:none;fill-rule:nonzero;fill:rgb(100%,100%,100%);fill-opacity:1;" d="M 91.457031 84.023438 C 91.058594 84.023438 90.894531 83.753906 90.894531 83.460938 L 90.894531 76.089844 C 90.894531 75.796875 91.082031 75.515625 91.457031 75.515625 L 91.792969 75.515625 C 92.167969 75.515625 92.355469 75.796875 92.355469 76.089844 L 92.355469 82.585938 L 95.726562 82.585938 C 96.019531 82.585938 96.289062 82.761719 96.289062 83.144531 L 96.289062 83.460938 C 96.289062 83.847656 96.019531 84.023438 95.726562 84.023438 L 91.457031 84.023438 "/>
<path style=" stroke:none;fill-rule:nonzero;fill:rgb(100%,100%,100%);fill-opacity:1;" d="M 98.164062 76.078125 C 98.164062 75.761719 98.351562 75.515625 98.726562 75.515625 L 99.054688 75.515625 C 99.429688 75.515625 99.628906 75.761719 99.628906 76.078125 L 99.628906 83.472656 C 99.628906 83.777344 99.441406 84.023438 99.054688 84.023438 L 98.738281 84.023438 C 98.363281 84.023438 98.164062 83.777344 98.164062 83.472656 L 98.164062 76.078125 "/>
<path style=" stroke:none;fill-rule:nonzero;fill:rgb(100%,100%,100%);fill-opacity:1;" d="M 108.222656 81.050781 L 108.644531 81.050781 C 109.015625 81.050781 109.273438 81.320312 109.085938 81.777344 C 108.421875 83.355469 107.285156 84.117188 105.714844 84.117188 C 103.550781 84.117188 102.148438 82.242188 102.148438 79.777344 C 102.148438 77.199219 103.585938 75.421875 105.808594 75.421875 C 107.355469 75.421875 108.605469 76.472656 108.980469 77.914062 C 109.050781 78.195312 108.921875 78.488281 108.632812 78.570312 L 108.289062 78.664062 C 107.976562 78.746094 107.648438 78.628906 107.566406 78.300781 C 107.355469 77.433594 106.734375 76.839844 105.808594 76.828125 C 104.464844 76.816406 103.621094 77.984375 103.621094 79.765625 C 103.621094 81.449219 104.429688 82.675781 105.726562 82.675781 C 106.664062 82.675781 107.296875 82.242188 107.613281 81.449219 C 107.71875 81.179688 107.953125 81.050781 108.222656 81.050781 "/>
<path style=" stroke:none;fill-rule:nonzero;fill:rgb(100%,100%,100%);fill-opacity:1;" d="M 115.765625 76.941406 L 115.765625 79.34375 L 117.507812 79.34375 C 118.371094 79.34375 118.828125 78.875 118.828125 78.183594 C 118.828125 77.445312 118.363281 76.941406 117.578125 76.941406 Z M 120.492188 83.25 C 120.75 83.625 120.503906 84.023438 120.058594 84.023438 L 119.578125 84.023438 C 119.355469 84.023438 119.121094 83.894531 118.992188 83.707031 L 117.085938 80.734375 L 115.765625 80.734375 L 115.765625 83.460938 C 115.765625 83.753906 115.589844 84.023438 115.191406 84.023438 L 114.851562 84.023438 C 114.453125 84.023438 114.265625 83.753906 114.265625 83.460938 L 114.265625 76.089844 C 114.265625 75.796875 114.453125 75.515625 114.851562 75.515625 L 117.589844 75.515625 C 119.25 75.515625 120.363281 76.601562 120.363281 78.136719 C 120.363281 79.378906 119.589844 80.253906 118.644531 80.546875 L 120.492188 83.25 "/>
<path style=" stroke:none;fill-rule:nonzero;fill:rgb(100%,100%,100%);fill-opacity:1;" d="M 125.527344 73.617188 C 125.621094 73.46875 125.800781 73.328125 126.019531 73.328125 L 126.757812 73.328125 C 127.003906 73.328125 127.109375 73.585938 126.957031 73.761719 L 126.148438 74.742188 C 125.996094 74.929688 125.835938 75.035156 125.609375 75.035156 L 125.109375 75.035156 C 124.921875 75.035156 124.78125 74.847656 124.898438 74.648438 Z M 124.183594 76.941406 L 124.183594 78.910156 L 126.816406 78.910156 C 127.144531 78.910156 127.402344 79.121094 127.402344 79.480469 L 127.402344 79.765625 C 127.402344 80.125 127.144531 80.335938 126.816406 80.335938 L 124.183594 80.335938 L 124.183594 82.59375 L 127.824219 82.59375 C 128.175781 82.59375 128.410156 82.851562 128.410156 83.15625 L 128.410156 83.460938 C 128.410156 83.777344 128.175781 84.023438 127.824219 84.023438 L 123.28125 84.023438 C 122.882812 84.023438 122.710938 83.765625 122.710938 83.460938 L 122.710938 76.089844 C 122.710938 75.785156 122.882812 75.515625 123.28125 75.515625 L 127.613281 75.515625 C 127.917969 75.515625 128.175781 75.726562 128.175781 76.089844 L 128.175781 76.367188 C 128.175781 76.71875 127.917969 76.941406 127.613281 76.941406 L 124.183594 76.941406 "/>
<path style=" stroke:none;fill-rule:nonzero;fill:rgb(100%,100%,100%);fill-opacity:1;" d="M 136.265625 78.335938 L 135.925781 78.464844 C 135.621094 78.570312 135.328125 78.429688 135.222656 78.136719 C 134.929688 77.375 134.367188 76.828125 133.445312 76.828125 C 132.109375 76.828125 131.324219 78.160156 131.324219 79.796875 C 131.324219 81.484375 132.050781 82.722656 133.433594 82.722656 C 134.671875 82.722656 135.339844 81.882812 135.386719 80.734375 L 133.960938 80.734375 C 133.644531 80.734375 133.386719 80.546875 133.386719 80.183594 L 133.386719 79.894531 C 133.386719 79.539062 133.621094 79.320312 133.949219 79.320312 L 136.277344 79.320312 C 136.605469 79.320312 136.828125 79.519531 136.828125 79.867188 L 136.828125 80.277344 C 136.828125 82.675781 135.386719 84.117188 133.375 84.117188 C 131.175781 84.117188 129.875 82.269531 129.875 79.808594 C 129.875 77.339844 131.339844 75.421875 133.457031 75.421875 C 135.035156 75.421875 136.171875 76.308594 136.59375 77.644531 C 136.699219 77.960938 136.570312 78.230469 136.265625 78.335938 "/>
<path style=" stroke:none;fill-rule:nonzero;fill:rgb(100%,100%,100%);fill-opacity:1;" d="M 139.40625 76.078125 C 139.40625 75.761719 139.59375 75.515625 139.96875 75.515625 L 140.296875 75.515625 C 140.671875 75.515625 140.867188 75.761719 140.867188 76.078125 L 140.867188 83.472656 C 140.867188 83.777344 140.683594 84.023438 140.296875 84.023438 L 139.980469 84.023438 C 139.605469 84.023438 139.40625 83.777344 139.40625 83.472656 L 139.40625 76.078125 "/>
<path style=" stroke:none;fill-rule:nonzero;fill:rgb(100%,100%,100%);fill-opacity:1;" d="M 144.851562 79.777344 C 144.851562 81.460938 145.609375 82.703125 146.898438 82.703125 C 148.1875 82.703125 148.945312 81.460938 148.945312 79.777344 C 148.945312 78.113281 148.164062 76.800781 146.898438 76.800781 C 145.632812 76.800781 144.851562 78.113281 144.851562 79.777344 Z M 143.375 79.777344 C 143.375 77.246094 144.789062 75.421875 146.898438 75.421875 C 149.003906 75.421875 150.421875 77.246094 150.421875 79.777344 C 150.421875 82.300781 149.027344 84.117188 146.898438 84.117188 C 144.769531 84.117188 143.375 82.300781 143.375 79.777344 "/>
<path style=" stroke:none;fill-rule:nonzero;fill:rgb(100%,100%,100%);fill-opacity:1;" d="M 152.589844 76.089844 C 152.589844 75.796875 152.777344 75.515625 153.175781 75.515625 L 153.738281 75.515625 C 153.972656 75.515625 154.183594 75.679688 154.289062 75.867188 L 157.34375 81.296875 L 157.332031 76.089844 C 157.332031 75.773438 157.53125 75.515625 157.878906 75.515625 L 158.230469 75.515625 C 158.605469 75.515625 158.792969 75.773438 158.792969 76.089844 L 158.792969 83.449219 C 158.792969 83.753906 158.59375 84.023438 158.21875 84.023438 L 157.71875 84.023438 C 157.484375 84.023438 157.296875 83.871094 157.203125 83.707031 L 154.039062 78.089844 L 154.066406 83.460938 C 154.066406 83.753906 153.914062 84.023438 153.515625 84.023438 L 153.152344 84.023438 C 152.753906 84.023438 152.589844 83.753906 152.589844 83.460938 L 152.589844 76.089844 "/>
<path style=" stroke:none;fill-rule:nonzero;fill:rgb(100%,100%,100%);fill-opacity:1;" d="M 163.339844 80.40625 L 165.257812 80.40625 L 164.3125 77.597656 Z M 162.847656 81.835938 L 162.15625 83.589844 C 162.050781 83.871094 161.816406 84.023438 161.570312 84.023438 L 161.09375 84.023438 C 160.753906 84.023438 160.53125 83.753906 160.671875 83.390625 L 163.46875 76.007812 C 163.585938 75.703125 163.761719 75.515625 164.136719 75.515625 L 164.496094 75.515625 C 164.871094 75.515625 165.023438 75.703125 165.140625 76.007812 L 167.960938 83.402344 C 168.089844 83.730469 167.925781 84.023438 167.539062 84.023438 L 167.027344 84.023438 C 166.769531 84.023438 166.546875 83.882812 166.441406 83.601562 L 165.785156 81.835938 L 162.847656 81.835938 "/>
<path style=" stroke:none;fill-rule:nonzero;fill:rgb(100%,100%,100%);fill-opacity:1;" d="M 170.390625 84.023438 C 169.992188 84.023438 169.828125 83.753906 169.828125 83.460938 L 169.828125 76.089844 C 169.828125 75.796875 170.015625 75.515625 170.390625 75.515625 L 170.726562 75.515625 C 171.101562 75.515625 171.289062 75.796875 171.289062 76.089844 L 171.289062 82.585938 L 174.660156 82.585938 C 174.953125 82.585938 175.222656 82.761719 175.222656 83.144531 L 175.222656 83.460938 C 175.222656 83.847656 174.953125 84.023438 174.660156 84.023438 L 170.390625 84.023438 "/>
<path style=" stroke:none;fill-rule:nonzero;fill:rgb(100%,100%,100%);fill-opacity:1;" d="M 182.355469 82.605469 C 183.949219 82.605469 184.976562 81.425781 184.976562 79.785156 C 184.976562 78.089844 183.984375 76.929688 182.34375 76.929688 L 181.199219 76.929688 L 181.199219 82.605469 Z M 180.296875 84.023438 C 179.910156 84.023438 179.746094 83.753906 179.746094 83.460938 L 179.746094 76.089844 C 179.746094 75.796875 179.921875 75.515625 180.296875 75.515625 L 182.296875 75.515625 C 184.777344 75.515625 186.429688 77.199219 186.429688 79.785156 C 186.429688 82.300781 184.683594 84.023438 182.320312 84.023438 L 180.296875 84.023438 "/>
<path style=" stroke:none;fill-rule:nonzero;fill:rgb(100%,100%,100%);fill-opacity:1;" d="M 190.0625 76.941406 L 190.0625 78.910156 L 192.695312 78.910156 C 193.023438 78.910156 193.28125 79.121094 193.28125 79.480469 L 193.28125 79.765625 C 193.28125 80.125 193.023438 80.335938 192.695312 80.335938 L 190.0625 80.335938 L 190.0625 82.59375 L 193.703125 82.59375 C 194.050781 82.59375 194.285156 82.851562 194.285156 83.15625 L 194.285156 83.460938 C 194.285156 83.777344 194.050781 84.023438 193.703125 84.023438 L 189.160156 84.023438 C 188.761719 84.023438 188.585938 83.765625 188.585938 83.460938 L 188.585938 76.089844 C 188.585938 75.785156 188.761719 75.515625 189.160156 75.515625 L 193.492188 75.515625 C 193.792969 75.515625 194.050781 75.726562 194.050781 76.089844 L 194.050781 76.367188 C 194.050781 76.71875 193.792969 76.941406 193.492188 76.941406 L 190.0625 76.941406 "/>
<path style=" stroke:none;fill-rule:nonzero;fill:rgb(100%,100%,100%);fill-opacity:1;" d="M 203.066406 82.605469 C 203.734375 82.605469 204.214844 82.140625 204.214844 81.460938 C 204.214844 80.769531 203.6875 80.300781 203.007812 80.300781 L 200.773438 80.300781 L 200.773438 82.605469 Z M 200.773438 78.957031 L 202.632812 78.957031 C 202.996094 78.851562 203.335938 78.441406 203.347656 77.996094 C 203.359375 77.386719 202.914062 76.941406 202.28125 76.941406 L 200.773438 76.941406 Z M 199.859375 84.023438 C 199.460938 84.023438 199.285156 83.753906 199.285156 83.460938 L 199.285156 76.089844 C 199.285156 75.796875 199.460938 75.515625 199.859375 75.515625 L 202.269531 75.515625 C 203.804688 75.515625 204.835938 76.496094 204.835938 77.925781 C 204.835938 78.40625 204.566406 78.921875 204.238281 79.222656 C 205.09375 79.539062 205.710938 80.488281 205.710938 81.472656 C 205.710938 83.015625 204.648438 84.023438 203.101562 84.023438 L 199.859375 84.023438 "/>
<path style=" stroke:none;fill-rule:nonzero;fill:rgb(100%,100%,100%);fill-opacity:1;" d="M 209.320312 76.941406 L 209.320312 79.34375 L 211.066406 79.34375 C 211.929688 79.34375 212.386719 78.875 212.386719 78.183594 C 212.386719 77.445312 211.917969 76.941406 211.136719 76.941406 Z M 214.050781 83.25 C 214.308594 83.625 214.0625 84.023438 213.617188 84.023438 L 213.136719 84.023438 C 212.914062 84.023438 212.679688 83.894531 212.550781 83.707031 L 210.644531 80.734375 L 209.320312 80.734375 L 209.320312 83.460938 C 209.320312 83.753906 209.144531 84.023438 208.746094 84.023438 L 208.410156 84.023438 C 208.011719 84.023438 207.824219 83.753906 207.824219 83.460938 L 207.824219 76.089844 C 207.824219 75.796875 208.011719 75.515625 208.410156 75.515625 L 211.148438 75.515625 C 212.808594 75.515625 213.921875 76.601562 213.921875 78.136719 C 213.921875 79.378906 213.148438 80.253906 212.199219 80.546875 L 214.050781 83.25 "/>
<path style=" stroke:none;fill-rule:nonzero;fill:rgb(100%,100%,100%);fill-opacity:1;" d="M 216.265625 81.121094 L 216.265625 76.089844 C 216.265625 75.796875 216.441406 75.515625 216.839844 75.515625 L 217.179688 75.515625 C 217.578125 75.515625 217.75 75.796875 217.75 76.089844 L 217.75 81.144531 C 217.75 82.140625 218.40625 82.714844 219.367188 82.714844 C 220.339844 82.714844 220.96875 82.140625 220.96875 81.144531 L 220.96875 76.089844 C 220.96875 75.796875 221.144531 75.515625 221.542969 75.515625 L 221.871094 75.515625 C 222.269531 75.515625 222.445312 75.796875 222.445312 76.089844 L 222.445312 81.121094 C 222.445312 82.96875 221.261719 84.117188 219.367188 84.117188 C 217.449219 84.117188 216.265625 82.980469 216.265625 81.121094 "/>
<path style=" stroke:none;fill-rule:nonzero;fill:rgb(100%,100%,100%);fill-opacity:1;" d="M 227.796875 78.382812 L 229.472656 75.820312 C 229.578125 75.65625 229.765625 75.515625 230.011719 75.515625 L 230.546875 75.515625 C 230.957031 75.515625 231.214844 75.925781 230.945312 76.335938 L 228.699219 79.679688 L 231.050781 83.214844 C 231.320312 83.625 231.074219 84.023438 230.640625 84.023438 L 230.148438 84.023438 C 229.871094 84.023438 229.707031 83.882812 229.613281 83.730469 L 227.796875 80.96875 L 225.996094 83.730469 C 225.890625 83.882812 225.726562 84.023438 225.445312 84.023438 L 224.953125 84.023438 C 224.53125 84.023438 224.273438 83.625 224.554688 83.203125 L 226.910156 79.679688 L 224.671875 76.335938 C 224.402344 75.925781 224.648438 75.515625 225.058594 75.515625 L 225.585938 75.515625 C 225.832031 75.515625 226.019531 75.65625 226.125 75.820312 L 227.796875 78.382812 "/>
<path style=" stroke:none;fill-rule:nonzero;fill:rgb(100%,100%,100%);fill-opacity:1;" d="M 234.753906 76.941406 L 234.753906 78.910156 L 237.386719 78.910156 C 237.714844 78.910156 237.972656 79.121094 237.972656 79.480469 L 237.972656 79.765625 C 237.972656 80.125 237.714844 80.335938 237.386719 80.335938 L 234.753906 80.335938 L 234.753906 82.59375 L 238.394531 82.59375 C 238.746094 82.59375 238.980469 82.851562 238.980469 83.15625 L 238.980469 83.460938 C 238.980469 83.777344 238.746094 84.023438 238.394531 84.023438 L 233.851562 84.023438 C 233.453125 84.023438 233.277344 83.765625 233.277344 83.460938 L 233.277344 76.089844 C 233.277344 75.785156 233.453125 75.515625 233.851562 75.515625 L 238.183594 75.515625 C 238.488281 75.515625 238.746094 75.726562 238.746094 76.089844 L 238.746094 76.367188 C 238.746094 76.71875 238.488281 76.941406 238.183594 76.941406 L 234.753906 76.941406 "/>
<path style=" stroke:none;fill-rule:nonzero;fill:rgb(100%,100%,100%);fill-opacity:1;" d="M 241.535156 84.023438 C 241.136719 84.023438 240.972656 83.753906 240.972656 83.460938 L 240.972656 76.089844 C 240.972656 75.796875 241.160156 75.515625 241.535156 75.515625 L 241.871094 75.515625 C 242.246094 75.515625 242.433594 75.796875 242.433594 76.089844 L 242.433594 82.585938 L 245.804688 82.585938 C 246.097656 82.585938 246.367188 82.761719 246.367188 83.144531 L 246.367188 83.460938 C 246.367188 83.847656 246.097656 84.023438 245.804688 84.023438 L 241.535156 84.023438 "/>
<path style=" stroke:none;fill-rule:nonzero;fill:rgb(100%,100%,100%);fill-opacity:1;" d="M 248.441406 84.023438 C 248.042969 84.023438 247.878906 83.753906 247.878906 83.460938 L 247.878906 76.089844 C 247.878906 75.796875 248.066406 75.515625 248.441406 75.515625 L 248.78125 75.515625 C 249.15625 75.515625 249.34375 75.796875 249.34375 76.089844 L 249.34375 82.585938 L 252.714844 82.585938 C 253.007812 82.585938 253.277344 82.761719 253.277344 83.144531 L 253.277344 83.460938 C 253.277344 83.847656 253.007812 84.023438 252.714844 84.023438 L 248.441406 84.023438 "/>
<path style=" stroke:none;fill-rule:nonzero;fill:rgb(100%,100%,100%);fill-opacity:1;" d="M 256.273438 76.941406 L 256.273438 78.910156 L 258.910156 78.910156 C 259.238281 78.910156 259.492188 79.121094 259.492188 79.480469 L 259.492188 79.765625 C 259.492188 80.125 259.238281 80.335938 258.910156 80.335938 L 256.273438 80.335938 L 256.273438 82.59375 L 259.914062 82.59375 C 260.265625 82.59375 260.5 82.851562 260.5 83.15625 L 260.5 83.460938 C 260.5 83.777344 260.265625 84.023438 259.914062 84.023438 L 255.375 84.023438 C 254.976562 84.023438 254.800781 83.765625 254.800781 83.460938 L 254.800781 76.089844 C 254.800781 75.785156 254.976562 75.515625 255.375 75.515625 L 259.703125 75.515625 C 260.007812 75.515625 260.265625 75.726562 260.265625 76.089844 L 260.265625 76.367188 C 260.265625 76.71875 260.007812 76.941406 259.703125 76.941406 L 256.273438 76.941406 "/>
<path style=" stroke:none;fill-rule:nonzero;fill:rgb(100%,100%,100%);fill-opacity:1;" d="M 268.34375 81.484375 C 268.34375 82.820312 267.128906 84.117188 265.164062 84.117188 C 263.277344 84.117188 261.886719 83.121094 261.851562 81.167969 C 261.851562 80.851562 262.0625 80.59375 262.398438 80.59375 L 262.785156 80.59375 C 263.113281 80.59375 263.359375 80.792969 263.382812 81.144531 C 263.453125 82.199219 264.121094 82.691406 265.164062 82.691406 C 266.167969 82.691406 266.800781 82.160156 266.800781 81.519531 C 266.800781 81.015625 266.507812 80.6875 265.757812 80.511719 C 265.3125 80.40625 264.835938 80.277344 264.34375 80.136719 C 263.359375 79.855469 262.214844 79.28125 262.214844 77.890625 C 262.214844 76.308594 263.488281 75.421875 265.117188 75.421875 C 266.660156 75.421875 267.9375 76.367188 268.089844 77.796875 C 268.125 78.136719 267.925781 78.394531 267.527344 78.394531 L 267.1875 78.394531 C 266.859375 78.394531 266.625 78.171875 266.589844 77.867188 C 266.519531 77.164062 265.898438 76.800781 265.09375 76.800781 C 264.285156 76.800781 263.699219 77.234375 263.710938 77.855469 C 263.722656 78.371094 264.25 78.617188 264.824219 78.769531 C 265.277344 78.898438 265.664062 78.992188 266.144531 79.109375 C 267.664062 79.460938 268.34375 80.253906 268.34375 81.484375 "/>
<path style=" stroke:none;fill-rule:nonzero;fill:rgb(100%,100%,100%);fill-opacity:1;" d="M 15.109375 91.21875 L 14.769531 91.347656 C 14.464844 91.453125 14.171875 91.3125 14.066406 91.019531 C 13.773438 90.257812 13.214844 89.707031 12.289062 89.707031 C 10.953125 89.707031 10.171875 91.042969 10.171875 92.679688 C 10.171875 94.367188 10.894531 95.605469 12.277344 95.605469 C 13.519531 95.605469 14.183594 94.765625 14.230469 93.617188 L 12.804688 93.617188 C 12.488281 93.617188 12.230469 93.429688 12.230469 93.066406 L 12.230469 92.773438 C 12.230469 92.425781 12.464844 92.199219 12.792969 92.199219 L 15.121094 92.199219 C 15.449219 92.199219 15.671875 92.398438 15.671875 92.75 L 15.671875 93.160156 C 15.671875 95.5625 14.230469 97 12.21875 97 C 10.019531 97 8.71875 95.148438 8.71875 92.695312 C 8.71875 90.222656 10.183594 88.304688 12.300781 88.304688 C 13.878906 88.304688 15.015625 89.195312 15.4375 90.527344 C 15.542969 90.84375 15.414062 91.113281 15.109375 91.21875 "/>
<path style=" stroke:none;fill-rule:nonzero;fill:rgb(100%,100%,100%);fill-opacity:1;" d="M 19.375 89.824219 L 19.375 91.792969 L 22.007812 91.792969 C 22.335938 91.792969 22.59375 92.003906 22.59375 92.363281 L 22.59375 92.644531 C 22.59375 93.007812 22.335938 93.21875 22.007812 93.21875 L 19.375 93.21875 L 19.375 95.480469 L 23.011719 95.480469 C 23.363281 95.480469 23.597656 95.738281 23.597656 96.039062 L 23.597656 96.34375 C 23.597656 96.660156 23.363281 96.90625 23.011719 96.90625 L 18.472656 96.90625 C 18.074219 96.90625 17.898438 96.648438 17.898438 96.34375 L 17.898438 88.972656 C 17.898438 88.667969 18.074219 88.398438 18.472656 88.398438 L 22.800781 88.398438 C 23.105469 88.398438 23.363281 88.609375 23.363281 88.972656 L 23.363281 89.25 C 23.363281 89.605469 23.105469 89.824219 22.800781 89.824219 L 19.375 89.824219 "/>
<path style=" stroke:none;fill-rule:nonzero;fill:rgb(100%,100%,100%);fill-opacity:1;" d="M 29.871094 88.394531 C 30.164062 88.394531 30.363281 88.558594 30.421875 88.839844 L 31.464844 94.117188 L 32.554688 88.839844 C 32.613281 88.570312 32.8125 88.394531 33.101562 88.394531 L 33.535156 88.394531 C 33.898438 88.394531 34.132812 88.640625 34.039062 89.015625 L 32.226562 96.480469 C 32.167969 96.726562 31.980469 96.902344 31.6875 96.902344 L 31.136719 96.902344 C 30.84375 96.902344 30.621094 96.75 30.5625 96.46875 L 29.570312 91.015625 L 28.5625 96.46875 C 28.503906 96.75 28.292969 96.902344 28.011719 96.902344 L 27.449219 96.902344 C 27.15625 96.902344 26.96875 96.726562 26.910156 96.480469 L 25.085938 89.027344 C 24.992188 88.652344 25.214844 88.394531 25.601562 88.394531 L 26.035156 88.394531 C 26.316406 88.394531 26.515625 88.570312 26.574219 88.839844 L 27.683594 94.117188 L 28.714844 88.839844 C 28.773438 88.558594 28.972656 88.394531 29.253906 88.394531 L 29.871094 88.394531 "/>
<path style=" stroke:none;fill-rule:nonzero;fill:rgb(100%,100%,100%);fill-opacity:1;" d="M 37.59375 89.820312 L 37.59375 91.789062 L 40.226562 91.789062 C 40.550781 91.789062 40.808594 92 40.808594 92.363281 L 40.808594 92.644531 C 40.808594 93.003906 40.550781 93.214844 40.226562 93.214844 L 37.59375 93.214844 L 37.59375 95.476562 L 41.230469 95.476562 C 41.582031 95.476562 41.816406 95.730469 41.816406 96.035156 L 41.816406 96.339844 C 41.816406 96.65625 41.582031 96.902344 41.230469 96.902344 L 36.691406 96.902344 C 36.292969 96.902344 36.117188 96.644531 36.117188 96.339844 L 36.117188 88.96875 C 36.117188 88.664062 36.292969 88.394531 36.691406 88.394531 L 41.019531 88.394531 C 41.324219 88.394531 41.582031 88.605469 41.582031 88.96875 L 41.582031 89.25 C 41.582031 89.601562 41.324219 89.820312 41.019531 89.820312 L 37.59375 89.820312 "/>
<path style=" stroke:none;fill-rule:nonzero;fill:rgb(100%,100%,100%);fill-opacity:1;" d="M 49.660156 94.367188 C 49.660156 95.699219 48.445312 97 46.476562 97 C 44.59375 97 43.203125 96.003906 43.167969 94.050781 C 43.167969 93.734375 43.378906 93.476562 43.714844 93.476562 L 44.101562 93.476562 C 44.429688 93.476562 44.675781 93.675781 44.699219 94.027344 C 44.769531 95.082031 45.4375 95.574219 46.476562 95.574219 C 47.484375 95.574219 48.117188 95.042969 48.117188 94.402344 C 48.117188 93.898438 47.824219 93.570312 47.074219 93.394531 C 46.632812 93.289062 46.152344 93.160156 45.660156 93.019531 C 44.675781 92.738281 43.53125 92.167969 43.53125 90.773438 C 43.53125 89.195312 44.804688 88.304688 46.429688 88.304688 C 47.976562 88.304688 49.253906 89.25 49.40625 90.679688 C 49.441406 91.019531 49.242188 91.277344 48.84375 91.277344 L 48.503906 91.277344 C 48.175781 91.277344 47.941406 91.054688 47.90625 90.75 C 47.835938 90.046875 47.214844 89.6875 46.40625 89.6875 C 45.601562 89.6875 45.015625 90.117188 45.027344 90.738281 C 45.039062 91.253906 45.566406 91.5 46.140625 91.652344 C 46.59375 91.78125 46.980469 91.875 47.460938 91.992188 C 48.984375 92.34375 49.660156 93.136719 49.660156 94.367188 "/>
<path style=" stroke:none;fill-rule:nonzero;fill:rgb(100%,100%,100%);fill-opacity:1;" d="M 50.941406 89.824219 C 50.613281 89.824219 50.378906 89.605469 50.378906 89.25 L 50.378906 88.972656 C 50.378906 88.621094 50.613281 88.398438 50.941406 88.398438 L 56.429688 88.398438 C 56.757812 88.398438 56.992188 88.621094 56.992188 88.972656 L 56.992188 89.25 C 56.992188 89.605469 56.757812 89.824219 56.429688 89.824219 L 54.417969 89.824219 L 54.417969 96.34375 C 54.417969 96.648438 54.207031 96.90625 53.84375 96.90625 L 53.515625 96.90625 C 53.152344 96.90625 52.953125 96.648438 52.953125 96.34375 L 52.953125 89.824219 L 50.941406 89.824219 "/>
<path style=" stroke:none;fill-rule:nonzero;fill:rgb(100%,100%,100%);fill-opacity:1;" d="M 60.039062 89.820312 L 60.039062 91.789062 L 62.671875 91.789062 C 63 91.789062 63.257812 92 63.257812 92.363281 L 63.257812 92.644531 C 63.257812 93.003906 63 93.214844 62.671875 93.214844 L 60.039062 93.214844 L 60.039062 95.476562 L 63.679688 95.476562 C 64.03125 95.476562 64.265625 95.730469 64.265625 96.035156 L 64.265625 96.339844 C 64.265625 96.65625 64.03125 96.902344 63.679688 96.902344 L 59.136719 96.902344 C 58.738281 96.902344 58.566406 96.644531 58.566406 96.339844 L 58.566406 88.96875 C 58.566406 88.664062 58.738281 88.394531 59.136719 88.394531 L 63.46875 88.394531 C 63.773438 88.394531 64.03125 88.605469 64.03125 88.96875 L 64.03125 89.25 C 64.03125 89.601562 63.773438 89.820312 63.46875 89.820312 L 60.039062 89.820312 "/>
<path style=" stroke:none;fill-rule:nonzero;fill:rgb(100%,100%,100%);fill-opacity:1;" d="M 66.820312 96.902344 C 66.421875 96.902344 66.257812 96.632812 66.257812 96.339844 L 66.257812 88.96875 C 66.257812 88.675781 66.445312 88.394531 66.820312 88.394531 L 67.15625 88.394531 C 67.53125 88.394531 67.71875 88.675781 67.71875 88.96875 L 67.71875 95.460938 L 71.089844 95.460938 C 71.382812 95.460938 71.652344 95.636719 71.652344 96.023438 L 71.652344 96.339844 C 71.652344 96.726562 71.382812 96.902344 71.089844 96.902344 L 66.820312 96.902344 "/>
<path style=" stroke:none;fill-rule:nonzero;fill:rgb(100%,100%,100%);fill-opacity:1;" d="M 73.527344 88.957031 C 73.527344 88.640625 73.714844 88.394531 74.089844 88.394531 L 74.417969 88.394531 C 74.792969 88.394531 74.992188 88.640625 74.992188 88.957031 L 74.992188 96.351562 C 74.992188 96.65625 74.804688 96.902344 74.417969 96.902344 L 74.101562 96.902344 C 73.726562 96.902344 73.527344 96.65625 73.527344 96.351562 L 73.527344 88.957031 "/>
<path style=" stroke:none;fill-rule:nonzero;fill:rgb(100%,100%,100%);fill-opacity:1;" d="M 82.074219 94.527344 C 82.074219 96.09375 81.101562 96.996094 79.535156 96.996094 C 78.015625 96.996094 77.042969 96.070312 77.042969 94.550781 L 77.042969 94.28125 C 77.042969 93.988281 77.230469 93.707031 77.628906 93.707031 L 77.957031 93.707031 C 78.351562 93.707031 78.515625 93.988281 78.515625 94.28125 L 78.515625 94.574219 C 78.515625 95.195312 78.890625 95.605469 79.535156 95.605469 C 80.179688 95.605469 80.625 95.179688 80.625 94.550781 L 80.625 88.96875 C 80.625 88.675781 80.785156 88.394531 81.183594 88.394531 L 81.5 88.394531 C 81.898438 88.394531 82.074219 88.675781 82.074219 88.96875 L 82.074219 94.527344 "/>
<path style=" stroke:none;fill-rule:nonzero;fill:rgb(100%,100%,100%);fill-opacity:1;" d="M 86.585938 93.34375 L 86.082031 93.894531 L 86.082031 96.339844 C 86.082031 96.632812 85.882812 96.902344 85.507812 96.902344 L 85.167969 96.902344 C 84.792969 96.902344 84.59375 96.632812 84.59375 96.339844 L 84.59375 88.96875 C 84.59375 88.640625 84.78125 88.394531 85.179688 88.394531 L 85.507812 88.394531 C 85.882812 88.394531 86.082031 88.640625 86.082031 88.96875 L 86.082031 91.976562 L 88.972656 88.675781 C 89.078125 88.558594 89.308594 88.394531 89.582031 88.394531 L 90.105469 88.394531 C 90.574219 88.394531 90.679688 88.851562 90.398438 89.167969 L 87.554688 92.300781 L 90.714844 96.117188 C 90.984375 96.445312 90.832031 96.902344 90.398438 96.902344 L 89.835938 96.902344 C 89.625 96.902344 89.367188 96.761719 89.207031 96.550781 L 86.585938 93.34375 "/>
<path style=" stroke:none;fill-rule:nonzero;fill:rgb(100%,100%,100%);fill-opacity:1;" d="M 94.089844 89.820312 L 94.089844 91.789062 L 96.722656 91.789062 C 97.050781 91.789062 97.308594 92 97.308594 92.363281 L 97.308594 92.644531 C 97.308594 93.003906 97.050781 93.214844 96.722656 93.214844 L 94.089844 93.214844 L 94.089844 95.476562 L 97.730469 95.476562 C 98.082031 95.476562 98.316406 95.730469 98.316406 96.035156 L 98.316406 96.339844 C 98.316406 96.65625 98.082031 96.902344 97.730469 96.902344 L 93.1875 96.902344 C 92.789062 96.902344 92.613281 96.644531 92.613281 96.339844 L 92.613281 88.96875 C 92.613281 88.664062 92.789062 88.394531 93.1875 88.394531 L 97.519531 88.394531 C 97.824219 88.394531 98.082031 88.605469 98.082031 88.96875 L 98.082031 89.25 C 98.082031 89.601562 97.824219 89.820312 97.519531 89.820312 L 94.089844 89.820312 "/>
<path style=" stroke:none;fill-rule:nonzero;fill:rgb(100%,100%,100%);fill-opacity:1;" d="M 104.371094 92.65625 C 104.371094 94.339844 105.132812 95.582031 106.417969 95.582031 C 107.707031 95.582031 108.46875 94.339844 108.46875 92.65625 C 108.46875 90.992188 107.683594 89.679688 106.417969 89.679688 C 105.15625 89.679688 104.371094 90.992188 104.371094 92.65625 Z M 102.894531 92.65625 C 102.894531 90.125 104.3125 88.300781 106.417969 88.300781 C 108.523438 88.300781 109.941406 90.125 109.941406 92.65625 C 109.941406 95.179688 108.550781 96.996094 106.417969 96.996094 C 104.289062 96.996094 102.894531 95.179688 102.894531 92.65625 "/>
<path style=" stroke:none;fill-rule:nonzero;fill:rgb(100%,100%,100%);fill-opacity:1;" d="M 115.363281 96.507812 C 115.28125 96.742188 115.082031 96.90625 114.8125 96.90625 L 114.3125 96.90625 C 114.066406 96.90625 113.84375 96.742188 113.761719 96.507812 L 111.164062 89.101562 C 111.023438 88.703125 111.222656 88.398438 111.617188 88.398438 L 112.074219 88.398438 C 112.367188 88.398438 112.554688 88.574219 112.636719 88.820312 L 114.566406 94.695312 L 116.464844 88.820312 C 116.535156 88.585938 116.746094 88.398438 117.027344 88.398438 L 117.472656 88.398438 C 117.867188 88.398438 118.066406 88.726562 117.9375 89.101562 L 115.363281 96.507812 "/>
<path style=" stroke:none;fill-rule:nonzero;fill:rgb(100%,100%,100%);fill-opacity:1;" d="M 121.394531 89.824219 L 121.394531 91.792969 L 124.027344 91.792969 C 124.355469 91.792969 124.613281 92.003906 124.613281 92.363281 L 124.613281 92.644531 C 124.613281 93.007812 124.355469 93.21875 124.027344 93.21875 L 121.394531 93.21875 L 121.394531 95.480469 L 125.035156 95.480469 C 125.386719 95.480469 125.621094 95.738281 125.621094 96.039062 L 125.621094 96.34375 C 125.621094 96.660156 125.386719 96.90625 125.035156 96.90625 L 120.492188 96.90625 C 120.097656 96.90625 119.921875 96.648438 119.921875 96.34375 L 119.921875 88.972656 C 119.921875 88.667969 120.097656 88.398438 120.492188 88.398438 L 124.824219 88.398438 C 125.128906 88.398438 125.386719 88.609375 125.386719 88.972656 L 125.386719 89.25 C 125.386719 89.605469 125.128906 89.824219 124.824219 89.824219 L 121.394531 89.824219 "/>
<path style=" stroke:none;fill-rule:nonzero;fill:rgb(100%,100%,100%);fill-opacity:1;" d="M 129.113281 89.824219 L 129.113281 92.226562 L 130.855469 92.226562 C 131.722656 92.226562 132.179688 91.757812 132.179688 91.066406 C 132.179688 90.328125 131.710938 89.824219 130.925781 89.824219 Z M 133.839844 96.132812 C 134.097656 96.507812 133.851562 96.90625 133.40625 96.90625 L 132.925781 96.90625 C 132.703125 96.90625 132.472656 96.777344 132.34375 96.589844 L 130.433594 93.617188 L 129.113281 93.617188 L 129.113281 96.34375 C 129.113281 96.636719 128.9375 96.90625 128.539062 96.90625 L 128.199219 96.90625 C 127.800781 96.90625 127.613281 96.636719 127.613281 96.34375 L 127.613281 88.972656 C 127.613281 88.679688 127.800781 88.398438 128.199219 88.398438 L 130.9375 88.398438 C 132.601562 88.398438 133.710938 89.488281 133.710938 91.019531 C 133.710938 92.261719 132.9375 93.136719 131.992188 93.429688 L 133.839844 96.132812 "/>
<path style=" stroke:none;fill-rule:nonzero;fill:rgb(100%,100%,100%);fill-opacity:1;" d="M 136.054688 88.972656 C 136.054688 88.679688 136.230469 88.398438 136.628906 88.398438 L 136.957031 88.398438 C 137.355469 88.398438 137.542969 88.679688 137.542969 88.972656 L 137.542969 91.957031 L 140.503906 91.957031 L 140.503906 88.972656 C 140.503906 88.679688 140.679688 88.398438 141.078125 88.398438 L 141.414062 88.398438 C 141.8125 88.398438 141.988281 88.679688 141.988281 88.972656 L 141.988281 96.34375 C 141.988281 96.636719 141.8125 96.90625 141.414062 96.90625 L 141.078125 96.90625 C 140.679688 96.90625 140.503906 96.636719 140.503906 96.34375 L 140.503906 93.382812 L 137.542969 93.382812 L 137.542969 96.34375 C 137.542969 96.636719 137.355469 96.90625 136.957031 96.90625 L 136.628906 96.90625 C 136.230469 96.90625 136.054688 96.636719 136.054688 96.34375 L 136.054688 88.972656 "/>
<path style=" stroke:none;fill-rule:nonzero;fill:rgb(100%,100%,100%);fill-opacity:1;" d="M 146.042969 89.824219 L 146.042969 91.792969 L 148.675781 91.792969 C 149.003906 91.792969 149.261719 92.003906 149.261719 92.363281 L 149.261719 92.644531 C 149.261719 93.007812 149.003906 93.21875 148.675781 93.21875 L 146.042969 93.21875 L 146.042969 95.480469 L 149.683594 95.480469 C 150.035156 95.480469 150.269531 95.738281 150.269531 96.039062 L 150.269531 96.34375 C 150.269531 96.660156 150.035156 96.90625 149.683594 96.90625 L 145.140625 96.90625 C 144.742188 96.90625 144.566406 96.648438 144.566406 96.34375 L 144.566406 88.972656 C 144.566406 88.667969 144.742188 88.398438 145.140625 88.398438 L 149.472656 88.398438 C 149.777344 88.398438 150.035156 88.609375 150.035156 88.972656 L 150.035156 89.25 C 150.035156 89.605469 149.777344 89.824219 149.472656 89.824219 L 146.042969 89.824219 "/>
<path style=" stroke:none;fill-rule:nonzero;fill:rgb(100%,100%,100%);fill-opacity:1;" d="M 152.613281 88.960938 C 152.613281 88.644531 152.800781 88.398438 153.175781 88.398438 L 153.503906 88.398438 C 153.875 88.398438 154.074219 88.644531 154.074219 88.960938 L 154.074219 96.355469 C 154.074219 96.660156 153.886719 96.90625 153.503906 96.90625 L 153.1875 96.90625 C 152.8125 96.90625 152.613281 96.660156 152.613281 96.355469 L 152.613281 88.960938 "/>
<path style=" stroke:none;fill-rule:nonzero;fill:rgb(100%,100%,100%);fill-opacity:1;" d="M 159.601562 95.488281 C 161.195312 95.488281 162.222656 94.308594 162.222656 92.667969 C 162.222656 90.972656 161.230469 89.8125 159.589844 89.8125 L 158.445312 89.8125 L 158.445312 95.488281 Z M 157.542969 96.90625 C 157.15625 96.90625 156.992188 96.636719 156.992188 96.34375 L 156.992188 88.972656 C 156.992188 88.679688 157.167969 88.398438 157.542969 88.398438 L 159.542969 88.398438 C 162.023438 88.398438 163.675781 90.082031 163.675781 92.667969 C 163.675781 95.1875 161.929688 96.90625 159.566406 96.90625 L 157.542969 96.90625 "/>
<path style=" stroke:none;fill-rule:nonzero;fill:rgb(100%,100%,100%);fill-opacity:1;" d="M 171.8125 94.367188 C 171.8125 95.699219 170.597656 97 168.628906 97 C 166.746094 97 165.351562 96.003906 165.316406 94.050781 C 165.316406 93.734375 165.527344 93.476562 165.867188 93.476562 L 166.253906 93.476562 C 166.582031 93.476562 166.828125 93.675781 166.851562 94.027344 C 166.921875 95.082031 167.589844 95.574219 168.628906 95.574219 C 169.636719 95.574219 170.269531 95.042969 170.269531 94.402344 C 170.269531 93.898438 169.976562 93.570312 169.226562 93.394531 C 168.78125 93.289062 168.300781 93.160156 167.8125 93.019531 C 166.828125 92.738281 165.679688 92.167969 165.679688 90.773438 C 165.679688 89.195312 166.957031 88.304688 168.582031 88.304688 C 170.128906 88.304688 171.402344 89.25 171.554688 90.679688 C 171.589844 91.019531 171.390625 91.277344 170.992188 91.277344 L 170.65625 91.277344 C 170.328125 91.277344 170.09375 91.054688 170.058594 90.75 C 169.988281 90.046875 169.367188 89.6875 168.558594 89.6875 C 167.753906 89.6875 167.167969 90.117188 167.179688 90.738281 C 167.191406 91.253906 167.71875 91.5 168.289062 91.652344 C 168.746094 91.78125 169.132812 91.875 169.613281 91.992188 C 171.132812 92.34375 171.8125 93.136719 171.8125 94.367188 "/>
<path style=" stroke:none;fill-rule:nonzero;fill:rgb(100%,100%,100%);fill-opacity:1;" d="M 176.59375 95.488281 C 178.183594 95.488281 179.214844 94.308594 179.214844 92.667969 C 179.214844 90.972656 178.21875 89.8125 176.582031 89.8125 L 175.433594 89.8125 L 175.433594 95.488281 Z M 174.53125 96.90625 C 174.144531 96.90625 173.980469 96.636719 173.980469 96.34375 L 173.980469 88.972656 C 173.980469 88.679688 174.15625 88.398438 174.53125 88.398438 L 176.535156 88.398438 C 179.015625 88.398438 180.664062 90.082031 180.664062 92.667969 C 180.664062 95.1875 178.921875 96.90625 176.558594 96.90625 L 174.53125 96.90625 "/>
<path style=" stroke:none;fill-rule:nonzero;fill:rgb(100%,100%,100%);fill-opacity:1;" d="M 183.183594 88.960938 C 183.183594 88.644531 183.371094 88.398438 183.746094 88.398438 L 184.074219 88.398438 C 184.449219 88.398438 184.648438 88.644531 184.648438 88.960938 L 184.648438 96.355469 C 184.648438 96.660156 184.460938 96.90625 184.074219 96.90625 L 183.757812 96.90625 C 183.382812 96.90625 183.183594 96.660156 183.183594 96.355469 L 183.183594 88.960938 "/>
<path style=" stroke:none;fill-rule:nonzero;fill:rgb(100%,100%,100%);fill-opacity:1;" d="M 189.039062 89.824219 L 189.039062 91.792969 L 191.671875 91.792969 C 192 91.792969 192.257812 92.003906 192.257812 92.363281 L 192.257812 92.644531 C 192.257812 93.007812 192 93.21875 191.671875 93.21875 L 189.039062 93.21875 L 189.039062 95.480469 L 192.679688 95.480469 C 193.03125 95.480469 193.265625 95.738281 193.265625 96.039062 L 193.265625 96.34375 C 193.265625 96.660156 193.03125 96.90625 192.679688 96.90625 L 188.136719 96.90625 C 187.738281 96.90625 187.5625 96.648438 187.5625 96.34375 L 187.5625 88.972656 C 187.5625 88.667969 187.738281 88.398438 188.136719 88.398438 L 192.46875 88.398438 C 192.773438 88.398438 193.03125 88.609375 193.03125 88.972656 L 193.03125 89.25 C 193.03125 89.605469 192.773438 89.824219 192.46875 89.824219 L 189.039062 89.824219 "/>
<path style=" stroke:none;fill-rule:nonzero;fill:rgb(100%,100%,100%);fill-opacity:1;" d="M 195.257812 88.972656 C 195.257812 88.679688 195.445312 88.398438 195.84375 88.398438 L 196.40625 88.398438 C 196.640625 88.398438 196.847656 88.5625 196.953125 88.75 L 200.007812 94.179688 L 199.996094 88.972656 C 199.996094 88.65625 200.195312 88.398438 200.546875 88.398438 L 200.898438 88.398438 C 201.273438 88.398438 201.460938 88.65625 201.460938 88.972656 L 201.460938 96.332031 C 201.460938 96.636719 201.261719 96.90625 200.886719 96.90625 L 200.382812 96.90625 C 200.148438 96.90625 199.960938 96.753906 199.867188 96.589844 L 196.710938 90.972656 L 196.730469 96.34375 C 196.730469 96.636719 196.582031 96.90625 196.183594 96.90625 L 195.820312 96.90625 C 195.421875 96.90625 195.257812 96.636719 195.257812 96.34375 L 195.257812 88.972656 "/>
<path style=" stroke:none;fill-rule:nonzero;fill:rgb(100%,100%,100%);fill-opacity:1;" d="M 210.125 94.367188 C 210.125 95.699219 208.910156 97 206.941406 97 C 205.058594 97 203.664062 96.003906 203.628906 94.050781 C 203.628906 93.734375 203.839844 93.476562 204.179688 93.476562 L 204.566406 93.476562 C 204.894531 93.476562 205.140625 93.675781 205.164062 94.027344 C 205.234375 95.082031 205.902344 95.574219 206.941406 95.574219 C 207.949219 95.574219 208.582031 95.042969 208.582031 94.402344 C 208.582031 93.898438 208.289062 93.570312 207.539062 93.394531 C 207.09375 93.289062 206.613281 93.160156 206.125 93.019531 C 205.140625 92.738281 203.992188 92.167969 203.992188 90.773438 C 203.992188 89.195312 205.269531 88.304688 206.894531 88.304688 C 208.441406 88.304688 209.714844 89.25 209.867188 90.679688 C 209.902344 91.019531 209.703125 91.277344 209.304688 91.277344 L 208.96875 91.277344 C 208.640625 91.277344 208.40625 91.054688 208.371094 90.75 C 208.300781 90.046875 207.679688 89.6875 206.871094 89.6875 C 206.066406 89.6875 205.480469 90.117188 205.492188 90.738281 C 205.503906 91.253906 206.03125 91.5 206.601562 91.652344 C 207.058594 91.78125 207.445312 91.875 207.925781 91.992188 C 209.445312 92.34375 210.125 93.136719 210.125 94.367188 "/>
<path style=" stroke:none;fill-rule:nonzero;fill:rgb(100%,100%,100%);fill-opacity:1;" d="M 211.40625 89.824219 C 211.078125 89.824219 210.84375 89.605469 210.84375 89.25 L 210.84375 88.972656 C 210.84375 88.621094 211.078125 88.398438 211.40625 88.398438 L 216.894531 88.398438 C 217.222656 88.398438 217.457031 88.621094 217.457031 88.972656 L 217.457031 89.25 C 217.457031 89.605469 217.222656 89.824219 216.894531 89.824219 L 214.878906 89.824219 L 214.878906 96.34375 C 214.878906 96.648438 214.671875 96.90625 214.308594 96.90625 L 213.980469 96.90625 C 213.617188 96.90625 213.417969 96.648438 213.417969 96.34375 L 213.417969 89.824219 L 211.40625 89.824219 "/>
<path style=" stroke:none;fill-rule:nonzero;fill:rgb(100%,100%,100%);fill-opacity:1;" d="M 225.816406 95.488281 C 226.484375 95.488281 226.964844 95.023438 226.964844 94.34375 C 226.964844 93.652344 226.4375 93.183594 225.757812 93.183594 L 223.523438 93.183594 L 223.523438 95.488281 Z M 223.523438 91.839844 L 225.382812 91.839844 C 225.746094 91.734375 226.085938 91.324219 226.097656 90.878906 C 226.109375 90.269531 225.664062 89.824219 225.03125 89.824219 L 223.523438 89.824219 Z M 222.609375 96.90625 C 222.210938 96.90625 222.035156 96.636719 222.035156 96.34375 L 222.035156 88.972656 C 222.035156 88.679688 222.210938 88.398438 222.609375 88.398438 L 225.019531 88.398438 C 226.554688 88.398438 227.582031 89.382812 227.582031 90.808594 C 227.582031 91.289062 227.3125 91.804688 226.988281 92.105469 C 227.839844 92.425781 228.460938 93.371094 228.460938 94.355469 C 228.460938 95.898438 227.394531 96.90625 225.851562 96.90625 L 222.609375 96.90625 "/>
<path style=" stroke:none;fill-rule:nonzero;fill:rgb(100%,100%,100%);fill-opacity:1;" d="M 232.070312 89.824219 L 232.070312 92.226562 L 233.8125 92.226562 C 234.679688 92.226562 235.136719 91.757812 235.136719 91.066406 C 235.136719 90.328125 234.667969 89.824219 233.882812 89.824219 Z M 236.796875 96.132812 C 237.054688 96.507812 236.808594 96.90625 236.367188 96.90625 L 235.886719 96.90625 C 235.664062 96.90625 235.429688 96.777344 235.300781 96.589844 L 233.394531 93.617188 L 232.070312 93.617188 L 232.070312 96.34375 C 232.070312 96.636719 231.894531 96.90625 231.496094 96.90625 L 231.15625 96.90625 C 230.757812 96.90625 230.570312 96.636719 230.570312 96.34375 L 230.570312 88.972656 C 230.570312 88.679688 230.757812 88.398438 231.15625 88.398438 L 233.894531 88.398438 C 235.558594 88.398438 236.667969 89.488281 236.667969 91.019531 C 236.667969 92.261719 235.898438 93.136719 234.949219 93.429688 L 236.796875 96.132812 "/>
<path style=" stroke:none;fill-rule:nonzero;fill:rgb(100%,100%,100%);fill-opacity:1;" d="M 239.015625 94.003906 L 239.015625 88.972656 C 239.015625 88.679688 239.191406 88.398438 239.589844 88.398438 L 239.925781 88.398438 C 240.324219 88.398438 240.5 88.679688 240.5 88.972656 L 240.5 94.027344 C 240.5 95.023438 241.15625 95.59375 242.117188 95.59375 C 243.085938 95.59375 243.71875 95.023438 243.71875 94.027344 L 243.71875 88.972656 C 243.71875 88.679688 243.894531 88.398438 244.292969 88.398438 L 244.621094 88.398438 C 245.019531 88.398438 245.195312 88.679688 245.195312 88.972656 L 245.195312 94.003906 C 245.195312 95.851562 244.011719 97 242.117188 97 C 240.195312 97 239.015625 95.863281 239.015625 94.003906 "/>
<path style=" stroke:none;fill-rule:nonzero;fill:rgb(100%,100%,100%);fill-opacity:1;" d="M 253.847656 94.367188 C 253.847656 95.699219 252.628906 97 250.664062 97 C 248.78125 97 247.386719 96.003906 247.351562 94.050781 C 247.351562 93.734375 247.5625 93.476562 247.902344 93.476562 L 248.289062 93.476562 C 248.617188 93.476562 248.863281 93.675781 248.886719 94.027344 C 248.957031 95.082031 249.621094 95.574219 250.664062 95.574219 C 251.671875 95.574219 252.300781 95.042969 252.300781 94.402344 C 252.300781 93.898438 252.011719 93.570312 251.261719 93.394531 C 250.816406 93.289062 250.335938 93.160156 249.84375 93.019531 C 248.863281 92.738281 247.714844 92.167969 247.714844 90.773438 C 247.714844 89.195312 248.992188 88.304688 250.617188 88.304688 C 252.164062 88.304688 253.4375 89.25 253.589844 90.679688 C 253.625 91.019531 253.425781 91.277344 253.027344 91.277344 L 252.6875 91.277344 C 252.359375 91.277344 252.128906 91.054688 252.09375 90.75 C 252.023438 90.046875 251.402344 89.6875 250.59375 89.6875 C 249.785156 89.6875 249.203125 90.117188 249.214844 90.738281 C 249.222656 91.253906 249.75 91.5 250.324219 91.652344 C 250.78125 91.78125 251.167969 91.875 251.648438 91.992188 C 253.167969 92.34375 253.847656 93.136719 253.847656 94.367188 "/>
<path style=" stroke:none;fill-rule:nonzero;fill:rgb(100%,100%,100%);fill-opacity:1;" d="M 261.984375 94.367188 C 261.984375 95.699219 260.769531 97 258.800781 97 C 256.917969 97 255.523438 96.003906 255.488281 94.050781 C 255.488281 93.734375 255.699219 93.476562 256.039062 93.476562 L 256.425781 93.476562 C 256.753906 93.476562 257 93.675781 257.023438 94.027344 C 257.09375 95.082031 257.761719 95.574219 258.800781 95.574219 C 259.808594 95.574219 260.441406 95.042969 260.441406 94.402344 C 260.441406 93.898438 260.148438 93.570312 259.398438 93.394531 C 258.953125 93.289062 258.472656 93.160156 257.984375 93.019531 C 257 92.738281 255.851562 92.167969 255.851562 90.773438 C 255.851562 89.195312 257.128906 88.304688 258.753906 88.304688 C 260.300781 88.304688 261.574219 89.25 261.726562 90.679688 C 261.761719 91.019531 261.5625 91.277344 261.164062 91.277344 L 260.828125 91.277344 C 260.5 91.277344 260.265625 91.054688 260.230469 90.75 C 260.160156 90.046875 259.539062 89.6875 258.730469 89.6875 C 257.925781 89.6875 257.339844 90.117188 257.351562 90.738281 C 257.363281 91.253906 257.890625 91.5 258.460938 91.652344 C 258.917969 91.78125 259.304688 91.875 259.785156 91.992188 C 261.304688 92.34375 261.984375 93.136719 261.984375 94.367188 "/>
<path style=" stroke:none;fill-rule:nonzero;fill:rgb(100%,100%,100%);fill-opacity:1;" d="M 265.628906 89.824219 L 265.628906 91.792969 L 268.261719 91.792969 C 268.589844 91.792969 268.847656 92.003906 268.847656 92.363281 L 268.847656 92.644531 C 268.847656 93.007812 268.589844 93.21875 268.261719 93.21875 L 265.628906 93.21875 L 265.628906 95.480469 L 269.269531 95.480469 C 269.621094 95.480469 269.855469 95.738281 269.855469 96.039062 L 269.855469 96.34375 C 269.855469 96.660156 269.621094 96.90625 269.269531 96.90625 L 264.726562 96.90625 C 264.328125 96.90625 264.152344 96.648438 264.152344 96.34375 L 264.152344 88.972656 C 264.152344 88.667969 264.328125 88.398438 264.726562 88.398438 L 269.058594 88.398438 C 269.363281 88.398438 269.621094 88.609375 269.621094 88.972656 L 269.621094 89.25 C 269.621094 89.605469 269.363281 89.824219 269.058594 89.824219 L 265.628906 89.824219 "/>
<g clip-path="url(#clip1)" clip-rule="nonzero">
<path style=" stroke:none;fill-rule:nonzero;fill:rgb(100%,100%,100%);fill-opacity:1;" d="M 272.410156 96.90625 C 272.011719 96.90625 271.847656 96.636719 271.847656 96.34375 L 271.847656 88.972656 C 271.847656 88.679688 272.035156 88.398438 272.410156 88.398438 L 272.75 88.398438 C 273.125 88.398438 273.308594 88.679688 273.308594 88.972656 L 273.308594 95.46875 L 276.679688 95.46875 C 276.972656 95.46875 277.242188 95.644531 277.242188 96.027344 L 277.242188 96.34375 C 277.242188 96.730469 276.972656 96.90625 276.679688 96.90625 L 272.410156 96.90625 "/>
</g>
<path style=" stroke:none;fill-rule:nonzero;fill:rgb(100%,100%,100%);fill-opacity:1;" d="M 7.257812 13.339844 C 3.617188 13.339844 0 16.085938 0 20.675781 C 0 25.128906 4.121094 27.898438 7.703125 27.898438 C 11.644531 27.898438 13.546875 26.660156 16.867188 27.332031 C 19.46875 27.855469 20.867188 29.128906 21.566406 29.792969 C 21.898438 30.113281 22.324219 30.148438 22.613281 29.957031 C 22.902344 29.769531 23.09375 29.40625 22.902344 28.546875 C 22.449219 26.542969 21.378906 24.296875 20.140625 22.386719 C 17.703125 18.621094 12.761719 13.339844 7.257812 13.339844 "/>
<path style=" stroke:none;fill-rule:nonzero;fill:rgb(100%,100%,100%);fill-opacity:1;" d="M 40.964844 13.339844 C 44.605469 13.339844 48.226562 16.085938 48.226562 20.675781 C 48.226562 25.128906 44.105469 27.898438 40.519531 27.898438 C 36.578125 27.898438 34.679688 26.660156 31.355469 27.332031 C 28.757812 27.855469 27.351562 29.128906 26.660156 29.792969 C 26.324219 30.113281 25.902344 30.148438 25.613281 29.957031 C 25.324219 29.769531 25.128906 29.40625 25.324219 28.546875 C 25.777344 26.542969 26.847656 24.296875 28.085938 22.386719 C 30.523438 18.621094 35.460938 13.339844 40.964844 13.339844 "/>
<g clip-path="url(#clip2)" clip-rule="nonzero">
<path style=" stroke:none;fill-rule:nonzero;fill:rgb(100%,100%,100%);fill-opacity:1;" d="M 32.671875 11.09375 C 30.117188 14.59375 26.640625 15.714844 24.113281 21.191406 C 21.582031 15.714844 18.109375 14.59375 15.554688 11.09375 C 14.902344 10.207031 14.539062 9.230469 14.539062 8.171875 C 14.539062 5.363281 16.8125 3.042969 19.621094 3.042969 C 22.0625 3.042969 23.582031 4.878906 24.113281 6.191406 C 24.644531 4.878906 26.164062 3.042969 28.601562 3.042969 C 31.414062 3.042969 33.683594 5.363281 33.683594 8.171875 C 33.683594 9.230469 33.320312 10.207031 32.671875 11.09375 Z M 28.773438 0.9375 C 26.742188 0.9375 25.058594 1.792969 24.113281 3.042969 C 23.167969 1.792969 21.484375 0.9375 19.449219 0.9375 C 15.769531 0.9375 12.390625 3.871094 12.390625 8.125 C 12.390625 9.988281 13.136719 11.40625 13.816406 12.394531 C 14.589844 13.523438 15.609375 14.5 17.210938 15.890625 C 19.527344 17.90625 21.4375 19.871094 23.261719 23.71875 C 23.40625 24.027344 23.714844 24.371094 24.113281 24.371094 C 24.511719 24.371094 24.820312 24.027344 24.964844 23.71875 C 26.789062 19.871094 28.695312 17.90625 31.015625 15.890625 C 32.617188 14.5 33.636719 13.523438 34.40625 12.394531 C 35.085938 11.40625 35.835938 9.988281 35.835938 8.125 C 35.835938 3.871094 32.457031 0.9375 28.773438 0.9375 "/>
</g>
</g>
</svg>
